<svg width="86" height="86" viewBox="0 0 86 86" fill="none" xmlns="http://www.w3.org/2000/svg">
<rect width="86" height="86" rx="16" fill="white"/>
<path fill-rule="evenodd" clip-rule="evenodd" d="M34.6666 24.667C33.7462 24.667 33 25.4132 33 26.3337V28.0003H31.3333C28.5719 28.0003 26.3333 30.2389 26.3333 33.0003V56.3337C26.3333 59.0952 28.5719 61.3337 31.3333 61.3337H44.835C43.8585 60.3768 43.0495 59.2497 42.456 58.0003H31.3333C30.4128 58.0003 29.6666 57.2542 29.6666 56.3337V41.3337H56.3333V41.8168C57.5373 42.1752 58.66 42.7227 59.6666 43.4248V33.0003C59.6666 30.2389 57.4281 28.0003 54.6666 28.0003H53V26.3337C53 25.4132 52.2538 24.667 51.3333 24.667C50.4128 24.667 49.6666 25.4132 49.6666 26.3337V28.0003H36.3333V26.3337C36.3333 25.4132 35.5871 24.667 34.6666 24.667ZM49.6666 33.0003V31.3337H36.3333V33.0003C36.3333 33.9208 35.5871 34.667 34.6666 34.667C33.7462 34.667 33 33.9208 33 33.0003V31.3337H31.3333C30.4128 31.3337 29.6666 32.0799 29.6666 33.0003V38.0003H56.3333V33.0003C56.3333 32.0799 55.5871 31.3337 54.6666 31.3337H53V33.0003C53 33.9208 52.2538 34.667 51.3333 34.667C50.4128 34.667 49.6666 33.9208 49.6666 33.0003Z" fill="#0A7339"/>
<path d="M48.4882 52.5115C49.139 51.8607 50.1944 51.8607 50.8452 52.5115L51.9139 53.58L55.0789 50.4149C55.7299 49.764 56.785 49.764 57.436 50.4149C58.0869 51.0659 58.0869 52.121 57.436 52.772L53.2022 57.0057C53.0582 57.1497 52.8945 57.2619 52.7197 57.342C52.0814 57.7154 51.248 57.6284 50.7005 57.0809L48.4882 54.8685C47.8374 54.2177 47.8374 53.1624 48.4882 52.5115Z" fill="#0A7339"/>
<path fill-rule="evenodd" clip-rule="evenodd" d="M63 53C63 58.5228 58.5228 63 53 63C47.4772 63 43 58.5228 43 53C43 47.4772 47.4772 43 53 43C58.5228 43 63 47.4772 63 53ZM46.3032 53C46.3032 56.6985 49.3015 59.6968 53 59.6968C56.6985 59.6968 59.6968 56.6985 59.6968 53C59.6968 49.3015 56.6985 46.3032 53 46.3032C49.3015 46.3032 46.3032 49.3015 46.3032 53Z" fill="#0A7339"/>
</svg>
