<svg width="44" height="44" viewBox="0 0 44 44" fill="none" xmlns="http://www.w3.org/2000/svg">
<g id="noun-invoice-5780953 1">
<path id="Vector" d="M26.125 5.5H13.75C11.4751 5.5 9.625 7.35006 9.625 9.625V34.375C9.625 36.6499 11.4751 38.5 13.75 38.5H30.25C32.5249 38.5 34.375 36.6499 34.375 34.375V13.75C34.375 13.3856 34.2299 13.0357 33.9721 12.7779L27.0971 5.90288C26.8393 5.64506 26.4894 5.5 26.125 5.5ZM27.5 10.1943L29.6807 12.375H27.5V10.1943ZM30.25 35.75H13.75C12.9917 35.75 12.375 35.1333 12.375 34.375V9.625C12.375 8.86669 12.9917 8.25 13.75 8.25H24.75V13.75C24.75 14.509 25.366 15.125 26.125 15.125H31.625V34.375C31.625 35.1333 31.0083 35.75 30.25 35.75Z" fill="#0A7339"/>
<path id="Vector_2" d="M16.566 16.8438H18.2848C18.3797 16.8438 18.4567 16.9208 18.4567 17.0156C18.4567 17.1105 18.3797 17.1875 18.2848 17.1875H15.3629C14.6039 17.1875 13.9879 17.8035 13.9879 18.5625C13.9879 19.3215 14.6039 19.9375 15.3629 19.9375H16.0504C16.0504 20.6965 16.6664 21.3125 17.4254 21.3125C18.1844 21.3125 18.8004 20.6965 18.8004 19.9375V19.8853C20.1658 19.6405 21.2067 18.4497 21.2067 17.0156C21.2067 15.4048 19.8963 14.0938 18.2848 14.0938H16.566C16.4712 14.0938 16.3942 14.0167 16.3942 13.9219C16.3942 13.827 16.4712 13.75 16.566 13.75H19.4879C20.2469 13.75 20.8629 13.134 20.8629 12.375C20.8629 11.616 20.2469 11 19.4879 11H18.8004C18.8004 10.241 18.1844 9.625 17.4254 9.625C16.6664 9.625 16.0504 10.241 16.0504 11V11.0523C14.685 11.297 13.6442 12.4878 13.6442 13.9219C13.6442 15.5327 14.9545 16.8438 16.566 16.8438Z" fill="#0A7339"/>
<path id="Vector_3" d="M28.875 31.625H15.125C14.366 31.625 13.75 32.241 13.75 33C13.75 33.759 14.366 34.375 15.125 34.375H28.875C29.634 34.375 30.25 33.759 30.25 33C30.25 32.241 29.634 31.625 28.875 31.625Z" fill="#0A7339"/>
<path id="Vector_4" d="M28.875 27.1562H15.125C14.366 27.1562 13.75 27.7722 13.75 28.5312C13.75 29.2903 14.366 29.9062 15.125 29.9062H28.875C29.634 29.9062 30.25 29.2903 30.25 28.5312C30.25 27.7722 29.634 27.1562 28.875 27.1562Z" fill="#0A7339"/>
<path id="Vector_5" d="M28.875 22.6875H15.125C14.366 22.6875 13.75 23.3035 13.75 24.0625C13.75 24.8215 14.366 25.4375 15.125 25.4375H28.875C29.634 25.4375 30.25 24.8215 30.25 24.0625C30.25 23.3035 29.634 22.6875 28.875 22.6875Z" fill="#0A7339"/>
</g>
</svg>
