<svg width="44" height="44" viewBox="0 0 44 44" fill="none" xmlns="http://www.w3.org/2000/svg">
<path d="M34.7752 32.5482V21.0848L36.2567 22.2921C36.5125 22.4997 36.8191 22.6008 37.125 22.6008C37.5238 22.6008 37.9198 22.4282 38.1914 22.0948C38.6712 21.5063 38.5825 20.64 37.994 20.1601L33.6394 16.6113V11.695C33.6394 10.1281 32.3648 8.85352 30.798 8.85352H29.3315C28.0459 8.85352 26.9693 9.71702 26.62 10.8913L24.717 9.34027C23.1179 8.05396 20.8835 8.05396 19.2762 9.34577L6.00604 20.1595C5.41754 20.6393 5.32955 21.5056 5.80873 22.0941C6.28792 22.6826 7.15486 22.7692 7.74336 22.2914L9.22492 21.0841V32.5475C9.22492 34.9228 11.1575 36.8554 13.5328 36.8554H30.4673C32.8426 36.8554 34.7752 34.9235 34.7752 32.5482ZM29.2408 11.695C29.2408 11.6448 29.282 11.6035 29.3322 11.6035H30.7987C30.8489 11.6035 30.8901 11.6448 30.8901 11.695V14.37L29.2415 13.0266L29.2408 11.695ZM11.9756 32.5482V18.8436L21.0073 11.4832C21.5924 11.013 22.4091 11.0123 22.9866 11.477L26.4908 14.3329V14.335L32.0252 18.8456V32.5482C32.0252 33.4069 31.3267 34.1061 30.4673 34.1061H13.5328C12.6734 34.1061 11.9749 33.4069 11.9749 32.5482H11.9756Z" fill="#0A7339"/>
<path d="M25.4966 18.9654L16.5591 27.9029C16.0221 28.4399 16.0221 29.3103 16.5591 29.8472C16.8272 30.116 17.1792 30.2501 17.5312 30.2501C17.8832 30.2501 18.2352 30.116 18.5033 29.8472L27.4408 20.9097C27.9778 20.3728 27.9778 19.5024 27.4408 18.9654C26.9046 18.4285 26.0328 18.4285 25.4966 18.9654Z" fill="#0A7339"/>
<path d="M25.7812 30.25C26.9203 30.25 27.8438 29.3266 27.8438 28.1875C27.8438 27.0484 26.9203 26.125 25.7812 26.125C24.6422 26.125 23.7188 27.0484 23.7188 28.1875C23.7188 29.3266 24.6422 30.25 25.7812 30.25Z" fill="#0A7339"/>
<path d="M18.2188 22.6875C19.3578 22.6875 20.2812 21.7641 20.2812 20.625C20.2812 19.4859 19.3578 18.5625 18.2188 18.5625C17.0797 18.5625 16.1562 19.4859 16.1562 20.625C16.1562 21.7641 17.0797 22.6875 18.2188 22.6875Z" fill="#0A7339"/>
</svg>
