<svg width="44" height="44" viewBox="0 0 44 44" fill="none" xmlns="http://www.w3.org/2000/svg">
<g id="noun-money-5780925 1">
<path id="Vector" d="M34.375 11.6875H9.625C7.35006 11.6875 5.5 13.5376 5.5 15.8125V28.1875C5.5 30.4624 7.35006 32.3125 9.625 32.3125H34.375C36.6499 32.3125 38.5 30.4624 38.5 28.1875V15.8125C38.5 13.5376 36.6499 11.6875 34.375 11.6875ZM8.25 25.4925V18.5075C10.3531 18.2043 12.0175 16.5406 12.32 14.4375H31.68C31.9832 16.5406 33.6469 18.205 35.75 18.5075V25.4925C33.6469 25.7957 31.9825 27.4594 31.68 29.5625H12.32C12.0168 27.4594 10.3531 25.795 8.25 25.4925Z" fill="#0A7339"/>
<path id="Vector_2" d="M22 15.8125C18.5886 15.8125 15.8125 18.5886 15.8125 22C15.8125 25.4114 18.5886 28.1875 22 28.1875C25.4114 28.1875 28.1875 25.4114 28.1875 22C28.1875 18.5886 25.4114 15.8125 22 15.8125ZM22 25.4375C20.1046 25.4375 18.5625 23.8954 18.5625 22C18.5625 20.1046 20.1046 18.5625 22 18.5625C23.8954 18.5625 25.4375 20.1046 25.4375 22C25.4375 23.8954 23.8954 25.4375 22 25.4375Z" fill="#0A7339"/>
</g>
</svg>
