<svg width="132" height="28" viewBox="0 0 132 28" fill="none" xmlns="http://www.w3.org/2000/svg">
<g id="Vector">
<path d="M6.00953 18.12C6.00953 18.7058 6.32408 19.1392 6.95317 19.4204C7.58227 19.7016 8.41003 19.8422 9.43645 19.8422C10.8602 19.8422 12.0191 19.5493 12.913 18.9635C13.8401 18.3778 14.3037 17.628 14.3037 16.7142H15.2473C15.2473 18.7761 14.5189 20.4396 13.062 21.7049C11.6052 22.9701 9.68478 23.6028 7.30083 23.6028C5.18177 23.6028 3.42692 23.1693 2.03629 22.3024C0.678762 21.412 0 20.2756 0 18.8932C0 17.628 0.529766 16.6322 1.5893 15.9058C2.64883 15.1561 4.30435 14.5469 6.55585 14.0783L14.3037 12.567V15.3084L8.6418 16.433C6.88695 16.7845 6.00953 17.3468 6.00953 18.12ZM20.3132 22.8647H14.3037L15.9426 18.8229L14.3037 18.2957V12.1804C14.3037 11.4306 13.9395 10.8331 13.211 10.3879C12.4826 9.94276 11.5224 9.72017 10.3304 9.72017C9.10535 9.72017 8.09548 10.0013 7.30083 10.5637C6.50618 11.1026 6.04264 11.8055 5.9102 12.6724L0 12.1101C0.364214 10.3059 1.47341 8.82981 3.32759 7.68172C5.18177 6.53362 7.54916 5.95957 10.4298 5.95957C13.3435 5.95957 15.7109 6.5219 17.5319 7.64657C19.3861 8.77124 20.3132 10.1536 20.3132 11.7938V22.8647Z" fill="white"/>
<path d="M44.2358 7.37143H61.9336V11.604H55.9189V23.0278H50.2506V11.604H44.2358V7.37143Z" fill="white"/>
<path d="M77.2752 7.37143H83.3038L75.6953 23.3291C74.9192 24.9637 73.9075 26.1508 72.6602 26.8905C71.4129 27.6302 70.0409 28 68.5441 28C67.3892 28 66.3544 27.8585 65.4397 27.5754C64.5343 27.3014 63.6519 26.8585 62.7927 26.2467V22.3703C63.6704 22.9182 64.4881 23.3109 65.2457 23.5483C66.0033 23.7857 66.8348 23.9044 67.7403 23.9044C68.5626 23.9044 69.2555 23.7309 69.8191 23.3839C70.3827 23.0369 70.8447 22.4433 71.205 21.6032L71.2189 21.5621H68.7381L62.0027 7.37143H68.2531L72.7156 18.0556L77.2752 7.37143Z" fill="white"/>
<path d="M96.9367 17.9597L100.997 7.37143H109.507V23.0278H104.199V11.6999L99.5006 23.0278H94.3312L89.6469 11.7821V23.0278H84.3389V7.37143H92.8483L96.9367 17.9597Z" fill="white"/>
<path d="M117.642 17.8364L124.724 7.37143H132V23.0278H126.415V12.2615L119.125 23.0278H112.071V7.37143H117.642V17.8364Z" fill="white"/>
<path d="M31.2424 2.85208C33.4038 2.88058 37.6005 2.52396 38.0317 0C38.0781 1.32385 38.0063 2.70602 37.8874 4.02029C37.7868 4.79939 37.5379 5.44647 37.1407 5.96151C36.7134 6.47616 36.0629 6.8578 35.1889 7.10641C34.3153 7.33502 33.083 7.43884 31.4923 7.41786L28.5208 7.37868L28.5824 2.817L31.2424 2.85208Z" fill="white"/>
<path d="M28.4771 17.8362L35.559 7.37128H42.835V23.0276H37.2498V12.2613L29.96 23.0276H22.9058V7.37128H28.4771V17.8362Z" fill="white"/>
</g>
</svg>
