<svg width="24" height="24" viewBox="0 0 24 24" fill="none" xmlns="http://www.w3.org/2000/svg">
<g id="Group 22">
<path id="Vector" d="M12 24C18.6275 24 24 18.6275 24 12C24 5.37258 18.6275 0 12 0C5.37258 0 0 5.37258 0 12C0 18.6275 5.37258 24 12 24Z" fill="#012DCB"/>
<g id="Vector_2">
<path d="M6.96406 14.1417C6.96406 14.3403 7.06686 14.4872 7.27247 14.5825C7.47807 14.6778 7.74861 14.7254 8.08406 14.7254C8.54938 14.7254 8.92812 14.6262 9.2203 14.4276C9.52329 14.2291 9.67479 13.975 9.67479 13.6653H9.9832C9.9832 14.3641 9.74513 14.9279 9.269 15.3568C8.79286 15.7856 8.16522 16 7.38609 16C6.69353 16 6.12 15.8531 5.66551 15.5593C5.22184 15.2575 5 14.8723 5 14.4038C5 13.975 5.17314 13.6375 5.51942 13.3913C5.8657 13.1372 6.40677 12.9307 7.14261 12.7719L9.67479 12.2597V13.1888L7.82435 13.57C7.25083 13.6891 6.96406 13.8797 6.96406 14.1417ZM11.6389 15.7499H9.67479L10.2104 14.38L9.67479 14.2013V12.1286C9.67479 11.8745 9.55576 11.672 9.31769 11.5211C9.07962 11.3703 8.76581 11.2948 8.37624 11.2948C7.97585 11.2948 7.6458 11.3901 7.38609 11.5807C7.12638 11.7633 6.97488 12.0016 6.9316 12.2954L5 12.1048C5.11903 11.4933 5.48155 10.993 6.08754 10.6039C6.69353 10.2148 7.46725 10.0202 8.4087 10.0202C9.36098 10.0202 10.1347 10.2108 10.7299 10.592C11.3359 10.9732 11.6389 11.4417 11.6389 11.9976V15.7499Z" fill="white"/>
<path d="M15.2101 8.96665C15.9164 8.97631 17.288 8.85544 17.429 8C17.4441 8.44869 17.4207 8.91714 17.3818 9.36259C17.3489 9.62664 17.2676 9.84596 17.1377 10.0205C16.9981 10.1949 16.7855 10.3243 16.4999 10.4086C16.2143 10.486 15.8116 10.5212 15.2917 10.5141L14.3206 10.5008L14.3407 8.95476L15.2101 8.96665Z" fill="white"/>
<path d="M14.3075 14.045L16.622 10.4982H19V15.8045H17.1746V12.1555L14.7922 15.8045H12.4867V10.4982H14.3075V14.045Z" fill="white"/>
</g>
</g>
</svg>
