<svg width="176" height="28" viewBox="0 0 176 28" fill="none" xmlns="http://www.w3.org/2000/svg">
<path d="M151.323 22.6809V13.114H169.692V7.79497H151.323V2.10653H144.831V28H176V22.6809H151.323Z" fill="#0B331D"/>
<path d="M139.671 14.4471L123.315 0L107.955 14.5172L107.937 27.9958L123.696 27.9931V21.5122L114.12 21.5007L114.125 17.155L123.455 8.33286L133.531 17.2267L133.531 27.9958L139.676 27.9958L139.671 14.4471Z" fill="#0B331D"/>
<path d="M79.2386 21.5359V2.14347H72.7465V28H103.141V21.5359H79.2386Z" fill="#0B331D"/>
<path fill-rule="evenodd" clip-rule="evenodd" d="M0 8.20128V2.14347H31.1694V28H5.42236L0 22.5701V11.932H24.6773V8.20128H0ZM8.37331 21.9422H24.6773V17.2511H6.49208V20.0953L8.37331 21.9422Z" fill="#0B331D"/>
<path d="M67.6368 8.05353V2.14347H36.32V28H42.812V17.7313H62.1776V12.4122H42.812V8.05353H67.6368Z" fill="#0B331D"/>
</svg>
