<svg width="200" height="32" viewBox="0 0 200 32" fill="none" xmlns="http://www.w3.org/2000/svg">
<path d="M171.958 25.9211V14.9875H192.832V8.90853H171.958V2.40747H164.58V32H200V25.9211H171.958Z" fill="white"/>
<path d="M158.717 16.511L140.13 0L122.676 16.5911L122.656 31.9952L140.563 31.9921V24.5854L129.682 24.5722L129.688 19.6057L140.29 9.52327L151.74 19.6877L151.74 31.9952L158.723 31.9952L158.717 16.511Z" fill="white"/>
<path d="M90.0439 24.6124V2.44967H82.6665V32H117.206V24.6124H90.0439Z" fill="white"/>
<path fill-rule="evenodd" clip-rule="evenodd" d="M0 9.37289V2.44967H35.4197V32H6.16178L0 25.7944V13.6366H28.0424V9.37289H0ZM9.51512 25.0768H28.0424V19.7155H7.37736V22.966L9.51512 25.0768Z" fill="white"/>
<path d="M76.86 9.20403V2.44967H41.2727V32H48.65V20.2643H70.6564V14.1854H48.65V9.20403H76.86Z" fill="white"/>
</svg>
