<svg width="248" height="204" viewBox="0 0 248 204" fill="none" xmlns="http://www.w3.org/2000/svg">
<g clip-path="url(#clip0_309_42)">
<rect width="247.77" height="204" transform="translate(0.230469)" fill="#D22630"/>
<g filter="url(#filter0_d_309_42)">
<path fill-rule="evenodd" clip-rule="evenodd" d="M174.08 558.539C100.291 522.695 -1.2848 526.627 -37.9434 453.232C-77.9009 373.232 -67.7254 262.228 -6.47063 197.054C51.0138 135.891 149.61 166.468 233.504 164.414C290.254 163.024 342.33 167.939 395.722 187.205C468.705 213.541 573.555 218.727 592.535 293.97C611.515 369.214 513.599 417.247 469.935 481.412C431.083 538.508 421.27 626.423 354.452 643.842C287.538 661.286 236.271 588.749 174.08 558.539Z" fill="url(#paint0_linear_309_42)"/>
</g>
</g>
<defs>
<filter id="filter0_d_309_42" x="-85.7695" y="114.561" width="704.717" height="535.953" filterUnits="userSpaceOnUse" color-interpolation-filters="sRGB">
<feFlood flood-opacity="0" result="BackgroundImageFix"/>
<feColorMatrix in="SourceAlpha" type="matrix" values="0 0 0 0 0 0 0 0 0 0 0 0 0 0 0 0 0 0 127 0" result="hardAlpha"/>
<feOffset dy="-20"/>
<feGaussianBlur stdDeviation="12"/>
<feComposite in2="hardAlpha" operator="out"/>
<feColorMatrix type="matrix" values="0 0 0 0 0 0 0 0 0 0 0 0 0 0 0 0 0 0 0.12 0"/>
<feBlend mode="normal" in2="BackgroundImageFix" result="effect1_dropShadow_309_42"/>
<feBlend mode="normal" in="SourceGraphic" in2="effect1_dropShadow_309_42" result="shape"/>
</filter>
<linearGradient id="paint0_linear_309_42" x1="116.502" y1="158.5" x2="127.002" y2="273" gradientUnits="userSpaceOnUse">
<stop stop-color="#FF1523"/>
<stop offset="1" stop-color="#D22630"/>
</linearGradient>
<clipPath id="clip0_309_42">
<rect width="247.77" height="204" fill="white" transform="translate(0.230469)"/>
</clipPath>
</defs>
</svg>
