<svg width="16" height="16" viewBox="0 0 16 16" fill="none" xmlns="http://www.w3.org/2000/svg">
<g id="noun-height-5652520 1">
<path id="Vector" d="M9.645 6.35497C9.69148 6.40183 9.74678 6.43903 9.80771 6.46442C9.86864 6.4898 9.934 6.50287 10 6.50287C10.066 6.50287 10.1314 6.4898 10.1923 6.46442C10.2532 6.43903 10.3085 6.40183 10.355 6.35497C10.4019 6.30849 10.4391 6.25319 10.4644 6.19226C10.4898 6.13133 10.5029 6.06598 10.5029 5.99997C10.5029 5.93396 10.4898 5.86861 10.4644 5.80768C10.4391 5.74675 10.4019 5.69145 10.355 5.64497L8.355 3.64497C8.30852 3.59811 8.25322 3.56091 8.19229 3.53552C8.13136 3.51014 8.06601 3.49707 8 3.49707C7.934 3.49707 7.86864 3.51014 7.80771 3.53552C7.74678 3.56091 7.69148 3.59811 7.645 3.64497L5.645 5.64497C5.55085 5.73912 5.49796 5.86682 5.49796 5.99997C5.49796 6.13312 5.55085 6.26082 5.645 6.35497C5.73915 6.44912 5.86685 6.50202 6 6.50202C6.13315 6.50202 6.26085 6.44912 6.355 6.35497L7.5 5.20497V10.795L6.355 9.64497C6.30838 9.59835 6.25304 9.56137 6.19213 9.53614C6.13121 9.51091 6.06593 9.49792 6 9.49792C5.93407 9.49792 5.86879 9.51091 5.80788 9.53614C5.74697 9.56137 5.69162 9.59835 5.645 9.64497C5.59838 9.69159 5.5614 9.74693 5.53617 9.80785C5.51094 9.86876 5.49796 9.93404 5.49796 9.99997C5.49796 10.0659 5.51094 10.1312 5.53617 10.1921C5.5614 10.253 5.59838 10.3083 5.645 10.355L7.645 12.355C7.69148 12.4018 7.74678 12.439 7.80771 12.4644C7.86864 12.4898 7.934 12.5029 8 12.5029C8.06601 12.5029 8.13136 12.4898 8.19229 12.4644C8.25322 12.439 8.30852 12.4018 8.355 12.355L10.355 10.355C10.4492 10.2608 10.502 10.1331 10.502 9.99997C10.502 9.86682 10.4492 9.73912 10.355 9.64497C10.2608 9.55082 10.1332 9.49792 10 9.49792C9.86685 9.49792 9.73915 9.55082 9.645 9.64497L8.5 10.795V5.20497L9.645 6.35497Z" fill="#0A7339"/>
<path id="Vector_2" d="M3.5 2.5H12.5C12.6326 2.5 12.7598 2.44732 12.8536 2.35355C12.9473 2.25979 13 2.13261 13 2C13 1.86739 12.9473 1.74021 12.8536 1.64645C12.7598 1.55268 12.6326 1.5 12.5 1.5H3.5C3.36739 1.5 3.24021 1.55268 3.14645 1.64645C3.05268 1.74021 3 1.86739 3 2C3 2.13261 3.05268 2.25979 3.14645 2.35355C3.24021 2.44732 3.36739 2.5 3.5 2.5Z" fill="#0A7339"/>
<path id="Vector_3" d="M12.5 13.5H3.5C3.36739 13.5 3.24021 13.5527 3.14645 13.6464C3.05268 13.7402 3 13.8674 3 14C3 14.1326 3.05268 14.2598 3.14645 14.3536C3.24021 14.4473 3.36739 14.5 3.5 14.5H12.5C12.6326 14.5 12.7598 14.4473 12.8536 14.3536C12.9473 14.2598 13 14.1326 13 14C13 13.8674 12.9473 13.7402 12.8536 13.6464C12.7598 13.5527 12.6326 13.5 12.5 13.5Z" fill="#0A7339"/>
</g>
</svg>
