<svg width="16" height="16" viewBox="0 0 16 16" fill="none" xmlns="http://www.w3.org/2000/svg">
<g id="camcorder-svgrepo-com 1" clip-path="url(#clip0_322_5400)">
<g id="&#233;&#161;&#181;&#233;&#157;&#162;-1">
<g id="Media">
<g id="camcorder_line">
<path id="&#229;&#189;&#162;&#231;&#138;&#182;" d="M10.6666 2.66675C11.3696 2.66675 11.9454 3.21067 11.9963 3.90057L12 4.00008V5.47313L13.3962 4.613C13.9283 4.28523 14.6073 4.6384 14.663 5.24235L14.6666 5.32251V10.6778C14.6666 11.3027 14.0098 11.6956 13.4664 11.4262L13.3962 11.3873L12 10.5271V12.0001C12 12.703 11.4561 13.2789 10.7662 13.3298L10.6666 13.3334H2.66665C1.96374 13.3334 1.38787 12.7895 1.33697 12.0996L1.33331 12.0001V4.00008C1.33331 3.29717 1.87723 2.7213 2.56714 2.67041L2.66665 2.66675H10.6666ZM10.6666 4.00008H2.66665V12.0001H10.6666V4.00008ZM13.3333 6.21778L12 7.03915V8.96115L13.3333 9.78255V6.21778Z" fill="#0A7339"/>
</g>
</g>
</g>
</g>
<defs>
<clipPath id="clip0_322_5400">
<rect width="16" height="16" fill="white"/>
</clipPath>
</defs>
</svg>
