<svg width="16" height="16" viewBox="0 0 16 16" fill="none" xmlns="http://www.w3.org/2000/svg">
<g id="briefcase-svgrepo-com 1" clip-path="url(#clip0_322_5388)">
<g id="&#233;&#161;&#181;&#233;&#157;&#162;-1">
<g id="Business">
<g id="briefcase_line">
<path id="&#229;&#189;&#162;&#231;&#138;&#182;" d="M9.33334 2C10.4379 2 11.3333 2.89543 11.3333 4H13.3333C14.0697 4 14.6667 4.59695 14.6667 5.33333V12.6667C14.6667 13.4031 14.0697 14 13.3333 14H2.66668C1.9303 14 1.33334 13.4031 1.33334 12.6667V5.33333C1.33334 4.59695 1.9303 4 2.66668 4H4.66668C4.66668 2.89543 5.56211 2 6.66668 2H9.33334ZM7.33334 8H2.66668V12.6667H13.3333V8H8.66668V8.66667C8.66668 9.03487 8.36821 9.33333 8.00001 9.33333C7.65811 9.33333 7.37634 9.07598 7.33783 8.74442L7.33334 8.66667V8ZM13.3333 5.33333H2.66668V6.66667H13.3333V5.33333ZM9.33334 3.33333H6.66668C6.32479 3.33333 6.04301 3.5907 6.0045 3.92225L6.00001 4H10C10 3.65811 9.74266 3.37633 9.41109 3.33782L9.33334 3.33333Z" fill="#0A7339"/>
</g>
</g>
</g>
</g>
<defs>
<clipPath id="clip0_322_5388">
<rect width="16" height="16" fill="white"/>
</clipPath>
</defs>
</svg>
