<svg width="16" height="16" viewBox="0 0 16 16" fill="none" xmlns="http://www.w3.org/2000/svg">
<g clip-path="url(#clip0_322_5370)">
<path d="M8.66668 2C9.3696 2 9.94545 2.54392 9.99635 3.23383L10 3.33333V6H12C12.7029 6 13.2788 6.54392 13.3297 7.23383L13.3333 7.33333V12.6667H14C14.3682 12.6667 14.6667 12.9651 14.6667 13.3333C14.6667 13.6752 14.4093 13.957 14.0778 13.9955L14 14H2.00001C1.63182 14 1.33334 13.7015 1.33334 13.3333C1.33334 12.9914 1.59071 12.7097 1.92226 12.6712L2.00001 12.6667H2.66668V3.33333C2.66668 2.63043 3.21059 2.05456 3.9005 2.00366L4.00001 2H8.66668ZM12 7.33333H10V12.6667H12V7.33333ZM8.66668 3.33333H4.00001V12.6667H8.66668V3.33333ZM7.33334 10V11.3333H5.33334V10H7.33334ZM7.33334 7.33333V8.66667H5.33334V7.33333H7.33334ZM7.33334 4.66667V6H5.33334V4.66667H7.33334Z" fill="#0A7339"/>
</g>
<defs>
<clipPath id="clip0_322_5370">
<rect width="16" height="16" fill="white"/>
</clipPath>
</defs>
</svg>
