<svg width="16" height="16" viewBox="0 0 16 16" fill="none" xmlns="http://www.w3.org/2000/svg">
<g id="noun-swim-1620911 1">
<path id="Vector" d="M9.92001 3.51973C9.92001 4.57845 10.7813 5.43973 11.84 5.43973C12.8987 5.43973 13.76 4.57845 13.76 3.51973C13.76 2.46101 12.8987 1.59973 11.84 1.59973C10.7813 1.59973 9.92001 2.46117 9.92001 3.51973ZM12.8 3.51973C12.8 4.04917 12.3695 4.47973 11.84 4.47973C11.3106 4.47973 10.88 4.04917 10.88 3.51973C10.88 2.99029 11.3106 2.55973 11.84 2.55973C12.3695 2.55973 12.8 2.99029 12.8 3.51973Z" fill="#0A7339"/>
<path id="Vector_2" d="M15.2 13.12C15.2 13.3853 14.9851 13.6 14.72 13.6C14.1064 13.6 13.7072 13.7997 13.2453 14.0312C12.7501 14.2792 12.1888 14.56 11.36 14.56C10.5267 14.56 9.96319 14.2783 9.46575 14.0295C9.00495 13.7992 8.60703 13.6 7.99999 13.6C7.39295 13.6 6.99503 13.7992 6.53423 14.0295C6.03679 14.2783 5.47327 14.56 4.63999 14.56C3.81119 14.56 3.24991 14.2792 2.75471 14.0312C2.29279 13.7997 1.89359 13.6 1.27999 13.6C1.01487 13.6 0.799988 13.3853 0.799988 13.12C0.799988 12.8547 1.01487 12.64 1.27999 12.64C2.12047 12.64 2.68575 12.9232 3.18447 13.1725C3.64255 13.4021 4.03807 13.6 4.63999 13.6C5.24655 13.6 5.64431 13.4013 6.10479 13.1706C6.60239 12.9221 7.16639 12.64 7.99999 12.64C8.83359 12.64 9.39759 12.9223 9.89519 13.1706C10.3557 13.4013 10.7534 13.6 11.36 13.6C11.9619 13.6 12.3574 13.4023 12.8155 13.1725C13.3142 12.9231 13.8795 12.64 14.72 12.64C14.9851 12.64 15.2 12.8547 15.2 13.12Z" fill="#0A7339"/>
<path id="Vector_3" d="M15.2 10.72C15.2 10.9853 14.9851 11.2 14.72 11.2C14.1064 11.2 13.7072 11.3997 13.2453 11.6312C12.7501 11.8792 12.1888 12.16 11.36 12.16C10.5267 12.16 9.96319 11.8782 9.46575 11.6294C9.00495 11.3992 8.60703 11.2 7.99999 11.2C7.39295 11.2 6.99503 11.3992 6.53423 11.6294C6.03679 11.8782 5.47327 12.16 4.63999 12.16C3.81119 12.16 3.24991 11.8792 2.75471 11.6312C2.29279 11.3997 1.89359 11.2 1.27999 11.2C1.01487 11.2 0.799988 10.9853 0.799988 10.72C0.799988 10.4547 1.01487 10.24 1.27999 10.24C2.12047 10.24 2.68575 10.5232 3.18447 10.7725C3.64255 11.0021 4.03807 11.2 4.63999 11.2C5.24655 11.2 5.64431 11.0013 6.10479 10.7706C6.60239 10.5221 7.16639 10.24 7.99999 10.24C8.83359 10.24 9.39759 10.5222 9.89519 10.7706C10.3557 11.0013 10.7534 11.2 11.36 11.2C11.9619 11.2 12.3574 11.0022 12.8155 10.7725C13.3142 10.523 13.8795 10.24 14.72 10.24C14.9851 10.24 15.2 10.4547 15.2 10.72Z" fill="#0A7339"/>
<path id="Vector_4" d="M14.72 7.84003C13.8795 7.84003 13.3142 8.12323 12.8155 8.37251C12.3574 8.60211 11.9619 8.80003 11.36 8.80003C10.8841 8.80003 10.5365 8.67635 10.1865 8.51235L11.2075 7.36179C11.4269 7.11475 11.4158 6.73763 11.1817 6.50259C10.8105 6.13139 9.51423 4.75427 9.01535 4.59587C8.29663 4.20115 7.46751 3.98915 6.62383 4.00403C5.49087 4.02355 4.43855 4.43763 3.80927 5.11219C3.62831 5.30579 3.63887 5.60947 3.83263 5.79043C4.02575 5.97139 4.32975 5.96099 4.51087 5.76707C4.96623 5.27939 5.76223 4.97907 6.64015 4.96387C6.98303 4.96067 7.50623 5.00355 8.06575 5.20947L4.73487 8.79219C4.10543 8.81571 3.75231 8.65731 3.18463 8.37251C2.68575 8.12307 2.12047 7.84003 1.27999 7.84003C1.01487 7.84003 0.799988 8.05491 0.799988 8.32003C0.799988 8.58531 1.01487 8.80003 1.27999 8.80003C1.89359 8.80003 2.29279 8.99971 2.75471 9.23123C3.24991 9.47923 3.81119 9.76003 4.63999 9.76003C5.12463 9.76003 5.62671 9.68355 6.53423 9.22947C6.99503 8.99923 7.39295 8.80003 7.99999 8.80003C8.60703 8.80003 9.00495 8.99923 9.46575 9.22947C9.96319 9.47827 10.5267 9.76003 11.36 9.76003C12.1888 9.76003 12.7501 9.47923 13.2453 9.23123C13.7072 8.99971 14.1064 8.80003 14.72 8.80003C14.9851 8.80003 15.2 8.58531 15.2 8.32003C15.2 8.05491 14.9851 7.84003 14.72 7.84003ZM9.27583 8.09187C8.91919 7.95123 8.51423 7.84003 7.99999 7.84003C7.46495 7.84003 7.04751 7.96003 6.68095 8.10899L8.94127 5.67827C9.27391 5.92403 9.39679 6.07539 10.2809 6.95955L9.27583 8.09187Z" fill="#0A7339"/>
</g>
</svg>
