<svg width="16" height="16" viewBox="0 0 16 16" fill="none" xmlns="http://www.w3.org/2000/svg">
<g id="door-svgrepo-com 1" clip-path="url(#clip0_322_5412)">
<g id="&#233;&#161;&#181;&#233;&#157;&#162;-1">
<g id="System">
<g id="door_line">
<path id="&#229;&#189;&#162;&#231;&#138;&#182;" d="M11.3333 2C12.0697 2 12.6667 2.59695 12.6667 3.33333V12.6667H13.3333C13.7015 12.6667 14 12.9651 14 13.3333C14 13.7015 13.7015 14 13.3333 14H2.66667C2.29848 14 2 13.7015 2 13.3333C2 12.9651 2.29848 12.6667 2.66667 12.6667H3.33333V3.33333C3.33333 2.59695 3.93029 2 4.66667 2H11.3333ZM11.3333 3.33333H4.66667V12.6667H11.3333V3.33333ZM9.66667 7.33333C10.2189 7.33333 10.6667 7.78107 10.6667 8.33333C10.6667 8.8856 10.2189 9.33333 9.66667 9.33333C9.1144 9.33333 8.66667 8.8856 8.66667 8.33333C8.66667 7.78107 9.1144 7.33333 9.66667 7.33333Z" fill="#0A7339"/>
</g>
</g>
</g>
</g>
<defs>
<clipPath id="clip0_322_5412">
<rect width="16" height="16" fill="white"/>
</clipPath>
</defs>
</svg>
