<svg width="16" height="16" viewBox="0 0 16 16" fill="none" xmlns="http://www.w3.org/2000/svg">
<g id="gym-svgrepo-com 1">
<path id="Union" fill-rule="evenodd" clip-rule="evenodd" d="M2.06665 5.06665C2.06665 4.51437 2.51437 4.06665 3.06665 4.06665H4.93332C5.4856 4.06665 5.93332 4.51437 5.93332 5.06665V7.40002H10.0667V5.06665C10.0667 4.51438 10.5143 4.06665 11.0667 4.06665H12.9333C13.4856 4.06665 13.9333 4.51438 13.9333 5.06665V5.40002H14.9333C15.4857 5.40002 15.9333 5.84776 15.9333 6.40002V9.60002C15.9333 10.1523 15.4856 10.6 14.9333 10.6H13.9333V10.9333C13.9333 11.4856 13.4856 11.9333 12.9333 11.9333H11.0667C10.5143 11.9333 10.0667 11.4856 10.0667 10.9333V8.60002H5.93332V10.9333C5.93332 11.4856 5.48558 11.9333 4.93332 11.9333H3.06665C2.51438 11.9333 2.06665 11.4856 2.06665 10.9333V10.6H1.06665C0.514385 10.6 0.0666504 10.1523 0.0666504 9.60002V6.40002C0.0666504 5.84774 0.514366 5.40002 1.06665 5.40002H2.06665V5.06665ZM11.2667 8.00486V10.7333H12.7333V5.26665H11.2667V7.99519C11.2667 7.9968 11.2667 7.99841 11.2667 8.00002C11.2667 8.00164 11.2667 8.00325 11.2667 8.00486ZM3.26665 9.60101L3.26665 9.60002V6.40002L3.26665 6.39904V5.26665H4.73332V10.7333H3.26665V9.60101ZM2.06665 6.60002H1.26665V9.40002H2.06665V6.60002ZM14.7333 6.60002H13.9333V9.40002H14.7333V6.60002Z" fill="#0A7339"/>
</g>
</svg>
