<svg width="16" height="16" viewBox="0 0 16 16" fill="none" xmlns="http://www.w3.org/2000/svg">
<g id="box-2-svgrepo-com 1" clip-path="url(#clip0_322_5364)">
<g id="&#233;&#161;&#181;&#233;&#157;&#162;-1">
<g id="File">
<g id="box_2_line">
<path id="&#229;&#189;&#162;&#231;&#138;&#182;" d="M13.3333 2C14.0363 2 14.6121 2.54392 14.663 3.23383L14.6667 3.33333V6H14V12.6667C14 13.3696 13.4561 13.9454 12.7662 13.9963L12.6667 14H3.33334C2.63044 14 2.05457 13.4561 2.00367 12.7662L2.00001 12.6667V6H1.33334V3.33333C1.33334 2.63043 1.87726 2.05456 2.56717 2.00366L2.66668 2H13.3333ZM12.6667 6H3.33334V12.6667H12.6667V6ZM9.33334 8.66667C9.70154 8.66667 10 8.96513 10 9.33333C10 9.70153 9.70154 10 9.33334 10H6.66668C6.29849 10 6.00001 9.70153 6.00001 9.33333C6.00001 8.96513 6.29849 8.66667 6.66668 8.66667H9.33334ZM13.3333 3.33333H2.66668V4.66667H13.3333V3.33333Z" fill="#0A7339"/>
</g>
</g>
</g>
</g>
<defs>
<clipPath id="clip0_322_5364">
<rect width="16" height="16" fill="white"/>
</clipPath>
</defs>
</svg>
