<svg width="16" height="16" viewBox="0 0 16 16" fill="none" xmlns="http://www.w3.org/2000/svg">
<g id="baby-carriage-svgrepo-com 1" clip-path="url(#clip0_322_5340)">
<g id="&#233;&#161;&#181;&#233;&#157;&#162;-1">
<g id="Transport">
<g id="baby_carriage_line">
<path id="&#229;&#189;&#162;&#231;&#138;&#182;" fill-rule="evenodd" clip-rule="evenodd" d="M6.4152 2.25487C6.20823 1.80132 5.67326 1.54186 5.16413 1.73928C4.23983 2.09768 3.417 2.68028 2.77091 3.43674C2.05227 4.27816 1.58032 5.30191 1.40722 6.39482C1.23412 7.48773 1.36662 8.6072 1.79007 9.62953C2.07468 10.3166 2.48326 10.9418 2.99239 11.4754C2.40783 11.7343 2.00001 12.3196 2.00001 13.0001C2.00001 13.9205 2.7462 14.6667 3.66668 14.6667C4.58715 14.6667 5.33334 13.9205 5.33334 13.0001L5.33332 12.9903C5.82444 13.1639 6.33838 13.2737 6.86261 13.3149C7.70274 13.3811 8.54434 13.2693 9.33334 12.9903V13.0001C9.33334 13.9205 10.0795 14.6667 11 14.6667C11.9205 14.6667 12.6667 13.9205 12.6667 13.0001C12.6667 12.3196 12.2589 11.7343 11.6743 11.4754C11.9662 11.1695 12.2263 10.8322 12.4492 10.4684C13.0273 9.52493 13.3333 8.43993 13.3333 7.3334V5.66673C13.3333 5.48263 13.4826 5.33339 13.6667 5.33339H14C14.3682 5.33339 14.6667 5.03492 14.6667 4.66673C14.6667 4.29854 14.3682 4.00006 14 4.00006H13.6667C12.7462 4.00006 12 4.74625 12 5.66673V6.66674H8.42861L6.4152 2.25487ZM3.78478 4.30267C4.21508 3.79886 4.74619 3.3942 5.34133 3.11328L6.96294 6.66674H2.71455C2.84044 5.79459 3.21198 4.97335 3.78478 4.30267ZM2.71454 8.00007C2.76976 8.38267 2.87258 8.75873 3.02191 9.11927C3.35126 9.9144 3.89408 10.603 4.59035 11.1089C5.28662 11.6147 6.10922 11.9182 6.96721 11.9857C7.82521 12.0532 8.68514 11.8822 9.45194 11.4915C10.2188 11.1007 10.8627 10.5056 11.3123 9.77174C11.645 9.22887 11.8619 8.62573 11.9521 8.00007C8.87294 8.00007 5.79374 8.00007 2.71454 8.00007ZM3.66668 12.6667C3.48258 12.6667 3.33334 12.8159 3.33334 13.0001C3.33334 13.1841 3.48258 13.3334 3.66668 13.3334C3.85077 13.3334 4.00001 13.1841 4.00001 13.0001C4.00001 12.8159 3.85077 12.6667 3.66668 12.6667ZM11 12.6667C10.8159 12.6667 10.6667 12.8159 10.6667 13.0001C10.6667 13.1841 10.8159 13.3334 11 13.3334C11.1841 13.3334 11.3333 13.1841 11.3333 13.0001C11.3333 12.8159 11.1841 12.6667 11 12.6667Z" fill="#0A7339"/>
</g>
</g>
</g>
</g>
<defs>
<clipPath id="clip0_322_5340">
<rect width="16" height="16" fill="white"/>
</clipPath>
</defs>
</svg>
