<svg width="16" height="16" viewBox="0 0 16 16" fill="none" xmlns="http://www.w3.org/2000/svg">
<g id="car-2-svgrepo-com 1" clip-path="url(#clip0_322_5376)">
<g id="&#233;&#161;&#181;&#233;&#157;&#162;-1">
<g id="Transport">
<g id="car_2_line">
<path id="&#229;&#189;&#162;&#231;&#138;&#182;" d="M10.9465 2.66663C11.3881 2.66663 11.7986 2.88508 12.0458 3.24544L12.1041 3.33844L14.491 7.51549C14.587 7.68338 14.645 7.8697 14.6617 8.06143L14.6667 8.17703V11.1759C14.6667 11.3415 14.6358 11.5053 14.5761 11.659L14.5259 11.7722L13.7805 13.2629C13.5708 13.6824 13.1578 13.9583 12.6955 13.9956L12.588 14H11.3333C10.6304 14 10.0546 13.4561 10.0037 12.7661L10 12.6666H6.00001C6.00001 13.3696 5.45609 13.9454 4.76618 13.9963L4.66668 14H3.41203C2.94308 14 2.51149 13.7539 2.2714 13.3571L2.21946 13.2629L1.47411 11.7722C1.40005 11.6241 1.3544 11.4638 1.3391 11.2996L1.33334 11.1759V8.17703C1.33334 7.98364 1.37539 7.79307 1.45603 7.61833L1.50902 7.51549L3.8959 3.33844C4.11503 2.95496 4.50832 2.70701 4.94387 2.67113L5.05356 2.66663H10.9465ZM10.9465 3.99996H5.05356L2.66668 8.17703V11.1759L3.41203 12.6666H4.66668V12.0666C4.66668 11.6886 4.95269 11.3774 5.32011 11.3376L5.40001 11.3333H10.6C10.978 11.3333 11.2892 11.6193 11.329 11.9867L11.3333 12.0666V12.6666H12.588L13.3333 11.1759V8.17703L10.9465 3.99996ZM11.0363 7.40309C11.3655 7.23936 11.7651 7.37289 11.9296 7.70183C12.0928 8.02809 11.955 8.43389 11.6307 8.59663C10.5349 9.14296 9.20648 9.33329 8.00001 9.33329C6.76954 9.33329 5.48634 9.14509 4.37232 8.59816C4.0485 8.43769 3.9085 8.02563 4.07039 7.70183C4.22488 7.39286 4.58299 7.2668 4.89716 7.37613L5.07539 7.45267L5.23823 7.51745L5.38392 7.57032L5.55785 7.62827L5.75877 7.68898L5.98544 7.75016L6.2366 7.80949L6.51101 7.86468C6.93942 7.9432 7.44208 7.99996 8.00001 7.99996C9.01061 7.99996 10.1125 7.84549 11.0363 7.40309Z" fill="#0A7339"/>
</g>
</g>
</g>
</g>
<defs>
<clipPath id="clip0_322_5376">
<rect width="16" height="16" fill="white"/>
</clipPath>
</defs>
</svg>
