<svg width="16" height="16" viewBox="0 0 16 16" fill="none" xmlns="http://www.w3.org/2000/svg">
<g id="sun-svgrepo-com 1" clip-path="url(#clip0_323_5424)">
<g id="&#233;&#161;&#181;&#233;&#157;&#162;-1">
<g id="Weather">
<g id="sun_line">
<path id="&#229;&#189;&#162;&#231;&#138;&#182;" d="M8.00001 12.6667C8.36821 12.6667 8.66668 12.9652 8.66668 13.3334V14C8.66668 14.3682 8.36821 14.6667 8.00001 14.6667C7.63181 14.6667 7.33334 14.3682 7.33334 14V13.3334C7.33334 12.9652 7.63181 12.6667 8.00001 12.6667ZM12.2427 11.2999L12.7141 11.7713C12.9744 12.0316 12.9744 12.4537 12.7141 12.7141C12.4537 12.9744 12.0316 12.9744 11.7713 12.7141L11.2999 12.2427C11.0395 11.9823 11.0395 11.5602 11.2999 11.2999C11.5602 11.0395 11.9823 11.0395 12.2427 11.2999ZM3.75733 11.2999C4.01768 11.0395 4.4398 11.0395 4.70014 11.2999C4.94046 11.5402 4.95895 11.9184 4.7556 12.1799L4.70014 12.2427L4.22874 12.7141C3.96839 12.9744 3.54628 12.9744 3.28593 12.7141C3.0456 12.4738 3.02712 12.0956 3.23047 11.8341L3.28593 11.7713L3.75733 11.2999ZM8.00001 4.00004C10.2091 4.00004 12 5.7909 12 8.00004C12 10.2092 10.2091 12 8.00001 12C5.79087 12 4.00001 10.2092 4.00001 8.00004C4.00001 5.7909 5.79087 4.00004 8.00001 4.00004ZM8.00001 5.33337C6.52725 5.33337 5.33334 6.52728 5.33334 8.00004C5.33334 9.47277 6.52725 10.6667 8.00001 10.6667C9.47274 10.6667 10.6667 9.47277 10.6667 8.00004C10.6667 6.52728 9.47274 5.33337 8.00001 5.33337ZM2.66668 7.33337C3.03486 7.33337 3.33334 7.63184 3.33334 8.00004C3.33334 8.34194 3.07598 8.62371 2.74442 8.66222L2.66668 8.66671H2.00001C1.63182 8.66671 1.33334 8.36824 1.33334 8.00004C1.33334 7.65814 1.59071 7.37637 1.92226 7.33786L2.00001 7.33337H2.66668ZM14 7.33337C14.3682 7.33337 14.6667 7.63184 14.6667 8.00004C14.6667 8.36824 14.3682 8.66671 14 8.66671H13.3333C12.9651 8.66671 12.6667 8.36824 12.6667 8.00004C12.6667 7.63184 12.9651 7.33337 13.3333 7.33337H14ZM3.28595 3.28596C3.52627 3.04564 3.90443 3.02715 4.16595 3.2305L4.22876 3.28596L4.70016 3.75737C4.96051 4.01771 4.96051 4.43983 4.70016 4.70017C4.45984 4.94049 4.08169 4.95898 3.82016 4.75563L3.75735 4.70017L3.28595 4.22877C3.0256 3.96842 3.0256 3.54631 3.28595 3.28596ZM12.7141 3.28597C12.9744 3.54632 12.9744 3.96843 12.7141 4.22878L12.2427 4.70019C11.9823 4.96053 11.5602 4.96053 11.2999 4.70019C11.0395 4.43983 11.0395 4.01773 11.2999 3.75738L11.7713 3.28597C12.0316 3.02562 12.4537 3.02562 12.7141 3.28597ZM8.00001 1.33337C8.36821 1.33337 8.66668 1.63185 8.66668 2.00004V2.66671C8.66668 3.03489 8.36821 3.33337 8.00001 3.33337C7.63181 3.33337 7.33334 3.03489 7.33334 2.66671V2.00004C7.33334 1.63185 7.63181 1.33337 8.00001 1.33337Z" fill="#0A7339"/>
</g>
</g>
</g>
</g>
<defs>
<clipPath id="clip0_323_5424">
<rect width="16" height="16" fill="white"/>
</clipPath>
</defs>
</svg>
