<svg width="16" height="16" viewBox="0 0 16 16" fill="none" xmlns="http://www.w3.org/2000/svg">
<g id="version-svgrepo-com 1" clip-path="url(#clip0_323_5436)">
<g id="&#233;&#161;&#181;&#233;&#157;&#162;-1">
<g id="System">
<g id="version_line">
<path id="&#229;&#189;&#162;&#231;&#138;&#182;" d="M8.62315 1.91859L13.4109 4.4494C14.1212 4.82483 14.1212 5.84215 13.4109 6.21757L12.5611 6.66684L13.4109 7.11604C14.1212 7.49151 14.1212 8.50884 13.4109 8.88424L12.5611 9.33351L13.4109 9.78271C14.1212 10.1582 14.1212 11.1755 13.4109 11.5509L8.62315 14.0817C8.23335 14.2878 7.76681 14.2878 7.37695 14.0817L2.58917 11.5509C1.87893 11.1755 1.87893 10.1582 2.58917 9.78271L3.43905 9.33351L2.58917 8.88424C1.87893 8.50884 1.87893 7.49151 2.58917 7.11604L3.43905 6.66684L2.58917 6.21757C1.87893 5.84214 1.87893 4.82483 2.58917 4.4494L7.37695 1.91859C7.76681 1.71252 8.23335 1.71252 8.62315 1.91859ZM11.1345 10.0876L8.62315 11.415C8.23335 11.6211 7.76681 11.6211 7.37695 11.415L4.86562 10.0876L3.76977 10.6668L8.00008 12.9029L12.2303 10.6668L11.1345 10.0876ZM11.1345 7.42091L8.62315 8.74837C8.26878 8.93571 7.851 8.95274 7.48506 8.79947L7.37695 8.74837L4.86562 7.42091L3.76977 8.00017L8.00008 10.2362L12.2303 8.00017L11.1345 7.42091ZM8.00008 3.09737L3.76977 5.33349L8.00008 7.56957L12.2303 5.33349L8.00008 3.09737Z" fill="#0A7339"/>
</g>
</g>
</g>
</g>
<defs>
<clipPath id="clip0_323_5436">
<rect width="16" height="16" fill="white"/>
</clipPath>
</defs>
</svg>
