<svg width="22" height="22" viewBox="0 0 22 22" fill="none" xmlns="http://www.w3.org/2000/svg">
<g id="morehorizontal-svgrepo-com 1">
<path id="Vector" fill-rule="evenodd" clip-rule="evenodd" d="M4.58354 12.6042C5.00899 12.6042 5.41701 12.4352 5.71785 12.1343C6.01869 11.8335 6.1877 11.4255 6.1877 11C6.1877 10.5746 6.01869 10.1665 5.71785 9.86571C5.41701 9.56487 5.00899 9.39586 4.58354 9.39586C4.15809 9.39586 3.75006 9.56487 3.44922 9.86571C3.14838 10.1665 2.97937 10.5746 2.97937 11C2.97937 11.4255 3.14838 11.8335 3.44922 12.1343C3.75006 12.4352 4.15809 12.6042 4.58354 12.6042ZM17.4169 12.6042C17.8423 12.6042 18.2503 12.4352 18.5512 12.1343C18.852 11.8335 19.021 11.4255 19.021 11C19.021 10.5746 18.852 10.1665 18.5512 9.86571C18.2503 9.56487 17.8423 9.39586 17.4169 9.39586C16.9914 9.39586 16.5834 9.56487 16.2826 9.86571C15.9817 10.1665 15.8127 10.5746 15.8127 11C15.8127 11.4255 15.9817 11.8335 16.2826 12.1343C16.5834 12.4352 16.9914 12.6042 17.4169 12.6042ZM12.6044 11C12.6044 11.4255 12.4354 11.8335 12.1345 12.1343C11.8337 12.4352 11.4257 12.6042 11.0002 12.6042C10.5748 12.6042 10.1667 12.4352 9.86589 12.1343C9.56505 11.8335 9.39604 11.4255 9.39604 11C9.39604 10.5746 9.56505 10.1665 9.86589 9.86571C10.1667 9.56487 10.5748 9.39586 11.0002 9.39586C11.4257 9.39586 11.8337 9.56487 12.1345 9.86571C12.4354 10.1665 12.6044 10.5746 12.6044 11Z" fill="black"/>
</g>
</svg>
