<svg width="16" height="16" viewBox="0 0 16 16" fill="none" xmlns="http://www.w3.org/2000/svg">
<g id="fullscreen-alt-svgrepo-com 1">
<path id="Vector" d="M2.66671 1.33301C1.93033 1.33301 1.33337 1.92996 1.33337 2.66634V5.33301C1.33337 5.70119 1.63185 5.99967 2.00004 5.99967C2.36823 5.99967 2.66671 5.70119 2.66671 5.33301V2.66634H5.33337C5.70156 2.66634 6.00004 2.36786 6.00004 1.99967C6.00004 1.63149 5.70156 1.33301 5.33337 1.33301H2.66671Z" fill="black"/>
<path id="Vector_2" d="M13.3333 1.33301C14.0697 1.33301 14.6667 1.92996 14.6667 2.66634V5.33301C14.6667 5.70119 14.3682 5.99967 14 5.99967C13.6318 5.99967 13.3333 5.70119 13.3333 5.33301V2.66634H10.6667C10.2985 2.66634 10 2.36786 10 1.99967C10 1.63149 10.2985 1.33301 10.6667 1.33301H13.3333Z" fill="black"/>
<path id="Vector_3" d="M13.3333 14.6667C14.0697 14.6667 14.6667 14.0697 14.6667 13.3333V10.6667C14.6667 10.2985 14.3682 10 14 10C13.6318 10 13.3333 10.2985 13.3333 10.6667V13.3333H10.6667C10.2985 13.3333 10 13.6318 10 14C10 14.3682 10.2985 14.6667 10.6667 14.6667H13.3333Z" fill="black"/>
<path id="Vector_4" d="M1.33334 13.3333C1.33334 14.0697 1.9303 14.6667 2.66668 14.6667H5.33334C5.70153 14.6667 6.00001 14.3682 6.00001 14C6.00001 13.6318 5.70153 13.3333 5.33334 13.3333H2.66668V10.6667C2.66668 10.2985 2.3682 10 2.00001 10C1.63182 10 1.33334 10.2985 1.33334 10.6667V13.3333Z" fill="black"/>
</g>
</svg>
