<svg width="16" height="16" viewBox="0 0 16 16" fill="none" xmlns="http://www.w3.org/2000/svg">
<g id="call-svgrepo-com (2) 1">
<g id="Group">
<path id="Vector" fill-rule="evenodd" clip-rule="evenodd" d="M14.031 11.8521C13.603 11.3131 12.908 10.5321 12.313 10.4581C11.951 10.4131 11.535 10.7131 11.125 10.9961C11.045 11.0361 10.427 11.4041 10.352 11.4261C9.95599 11.5391 9.11099 11.5721 8.59999 11.1061C8.10799 10.6561 7.32999 9.82306 6.70199 9.06006C6.10199 8.27406 5.47299 7.32906 5.15099 6.74906C4.81499 6.14806 5.05699 5.35306 5.26499 5.00306C5.30299 4.94006 5.76299 4.46706 5.86599 4.35706L5.88099 4.37506C6.26199 4.05506 6.66099 3.73006 6.70599 3.37806C6.77999 2.79206 6.18099 1.93906 5.75299 1.39906C5.32499 0.858063 4.66199 -0.0889367 3.75899 0.0450633C3.41899 0.0950633 3.12599 0.214063 2.83699 0.385063L2.82899 0.376063C2.82299 0.380063 2.79499 0.402063 2.78099 0.413063C2.77199 0.418063 2.76399 0.421063 2.75599 0.426063L2.75899 0.430063C2.59299 0.558063 2.11899 0.912063 2.06499 0.960063C1.47899 1.48106 0.596988 2.70806 1.27899 4.91506C1.78499 6.55506 2.86399 8.48106 4.33399 10.4291L4.32599 10.4361C4.39799 10.5301 4.47199 10.6151 4.54699 10.7061C4.61699 10.7991 4.68599 10.8911 4.75799 10.9831L4.76799 10.9761C6.32799 12.8551 7.96399 14.3571 9.45699 15.2431C11.467 16.4351 12.896 15.8981 13.556 15.4711C13.618 15.4301 14.09 15.0631 14.25 14.9421L14.254 14.9461C14.26 14.9401 14.264 14.9321 14.272 14.9261C14.284 14.9171 14.31 14.8971 14.315 14.8931L14.309 14.8851C14.551 14.6511 14.745 14.4011 14.879 14.0861C15.23 13.2571 14.459 12.3931 14.031 11.8521Z" fill="black"/>
</g>
</g>
</svg>
