<svg width="16" height="16" viewBox="0 0 16 16" fill="none" xmlns="http://www.w3.org/2000/svg">
<g id="telegram-svgrepo-com (1) 1" clip-path="url(#clip0_124_557)">
<g id="&#233;&#161;&#181;&#233;&#157;&#162;-1">
<g id="Brand">
<g id="telegram_fill">
<path id="&#232;&#183;&#175;&#229;&#190;&#132;" fill-rule="evenodd" clip-rule="evenodd" d="M13.1849 2.95322C13.9102 2.64784 14.6877 3.26112 14.5597 4.03758L13.0471 13.2087C12.9012 14.093 11.93 14.6004 11.1187 14.1597C10.4399 13.791 9.43267 13.2235 8.52494 12.6303C8.07167 12.3341 6.68374 11.3844 6.85434 10.7083C7.0002 10.1303 9.33347 7.95832 10.6668 6.66666C11.1905 6.15928 10.952 5.86616 10.3335 6.33332C8.79907 7.49219 6.33561 9.25412 5.52098 9.74999C4.80222 10.1875 4.42694 10.2621 3.97931 10.1875C3.16189 10.0513 2.40404 9.84032 1.78532 9.58386C0.949075 9.23719 0.989808 8.08799 1.78476 7.75332L13.1849 2.95322Z" fill="black"/>
</g>
</g>
</g>
</g>
<defs>
<clipPath id="clip0_124_557">
<rect width="16" height="16" fill="white"/>
</clipPath>
</defs>
</svg>
