<svg width="16" height="16" viewBox="0 0 16 16" fill="none" xmlns="http://www.w3.org/2000/svg">
<g id="message-bubble-svgrepo-com 1">
<path id="Vector" d="M1.52857 14.1947L1.52229 14.2018C1.31454 14.4152 1.27338 14.7411 1.42251 14.9997C1.57315 15.261 1.88043 15.3886 2.17183 15.3109L6.03539 14.2806C6.75597 14.5309 7.52951 14.6667 8.33337 14.6667C12.1994 14.6667 15.3334 11.5327 15.3334 7.66675C15.3334 3.80075 12.1994 0.666748 8.33337 0.666748C4.46739 0.666748 1.33339 3.80075 1.33339 7.66675C1.33339 9.06868 1.74618 10.3759 2.45684 11.4715C2.43639 11.6835 2.40157 11.9265 2.34633 12.2027C2.19333 12.9677 1.96745 13.486 1.79229 13.8013C1.70446 13.9594 1.62865 14.0677 1.57986 14.1315C1.55544 14.1635 1.53773 14.1843 1.52857 14.1947Z" fill="black"/>
</g>
</svg>
