<svg width="16" height="16" viewBox="0 0 16 16" fill="none" xmlns="http://www.w3.org/2000/svg">
<g id="instagram-svgrepo-com (1) 1" clip-path="url(#clip0_461_4074)">
<path id="Vector" fill-rule="evenodd" clip-rule="evenodd" d="M7.99747 0.00512695C5.82549 0.00512695 5.55314 0.0143333 4.70013 0.053254C3.84889 0.0920793 3.26753 0.227286 2.75883 0.425C2.23292 0.629349 1.78692 0.902812 1.34229 1.34741C0.89768 1.79205 0.624222 2.23805 0.419873 2.76395C0.222159 3.27265 0.0869527 3.85402 0.048127 4.70525C0.00920633 5.55827 0 5.83062 0 8.00265C0 10.1746 0.00920633 10.4469 0.048127 11.3C0.0869527 12.1512 0.222159 12.7326 0.419873 13.2413C0.624222 13.7672 0.89768 14.2132 1.34229 14.6578C1.78692 15.1024 2.23292 15.3759 2.75883 15.5803C3.26753 15.7779 3.84889 15.9131 4.70013 15.952C5.55314 15.9909 5.82549 16.0001 7.99747 16.0001C10.1695 16.0001 10.4418 15.9909 11.2948 15.952C12.1461 15.9131 12.7274 15.7779 13.2361 15.5803C13.762 15.3759 14.208 15.1024 14.6527 14.6578C15.0973 14.2132 15.3707 13.7672 15.5751 13.2413C15.7728 12.7326 15.908 12.1512 15.9468 11.3C15.9857 10.4469 15.9949 10.1746 15.9949 8.00265C15.9949 5.83062 15.9857 5.55827 15.9468 4.70525C15.908 3.85402 15.7728 3.27265 15.5751 2.76395C15.3707 2.23805 15.0973 1.79205 14.6527 1.34741C14.208 0.902812 13.762 0.629349 13.2361 0.425C12.7274 0.227286 12.1461 0.0920793 11.2948 0.053254C10.4418 0.0143333 10.1695 0.00512695 7.99747 0.00512695ZM5.33165 8.00265C5.33165 9.47492 6.52517 10.6685 7.99747 10.6685C9.4698 10.6685 10.6633 9.47492 10.6633 8.00265C10.6633 6.5303 9.4698 5.33678 7.99747 5.33678C6.52517 5.33678 5.33165 6.5303 5.33165 8.00265ZM3.89067 8.00265C3.89067 5.73446 5.72933 3.89579 7.99747 3.89579C10.2656 3.89579 12.1043 5.73446 12.1043 8.00265C12.1043 10.2707 10.2656 12.1094 7.99747 12.1094C5.72933 12.1094 3.89067 10.2707 3.89067 8.00265ZM12.2665 4.69323C12.7966 4.69323 13.2263 4.26357 13.2263 3.73354C13.2263 3.20351 12.7966 2.77383 12.2665 2.77383C11.7365 2.77383 11.3069 3.20351 11.3069 3.73354C11.3069 4.26357 11.7365 4.69323 12.2665 4.69323Z" fill="white"/>
</g>
<defs>
<clipPath id="clip0_461_4074">
<rect width="16" height="16" fill="white"/>
</clipPath>
</defs>
</svg>
