<svg width="28" height="28" viewBox="0 0 28 28" fill="none" xmlns="http://www.w3.org/2000/svg">
<path fill-rule="evenodd" clip-rule="evenodd" d="M4.66667 5.83325C4.02234 5.83325 3.5 6.35559 3.5 6.99992C3.5 7.64425 4.02234 8.16659 4.66667 8.16659H23.3333C23.9777 8.16659 24.5 7.64425 24.5 6.99992C24.5 6.35559 23.9777 5.83325 23.3333 5.83325H4.66667ZM3.5 13.9999C3.5 13.3556 4.02234 12.8333 4.66667 12.8333H23.3333C23.9777 12.8333 24.5 13.3556 24.5 13.9999C24.5 14.6443 23.9777 15.1666 23.3333 15.1666H4.66667C4.02234 15.1666 3.5 14.6443 3.5 13.9999ZM3.5 20.9999C3.5 20.3556 4.02234 19.8333 4.66667 19.8333H23.3333C23.9777 19.8333 24.5 20.3556 24.5 20.9999C24.5 21.6443 23.9777 22.1666 23.3333 22.1666H4.66667C4.02234 22.1666 3.5 21.6443 3.5 20.9999Z" fill="black"/>
</svg>
