<svg width="12" height="12" viewBox="0 0 12 12" fill="none" xmlns="http://www.w3.org/2000/svg">
<g clip-path="url(#clip0_405_7677)">
<path fill-rule="evenodd" clip-rule="evenodd" d="M6.5 1.5C7.02719 1.5 7.45908 1.90794 7.49726 2.42537L7.5 2.5V9.5H8V4.75C8 4.62727 8.08845 4.5252 8.20507 4.50403L8.25 4.5H9C9.52719 4.5 9.95908 4.90794 9.99726 5.42537L10 5.5V9.5H10.5C10.7761 9.5 11 9.72385 11 10C11 10.2564 10.807 10.4678 10.5583 10.4966L10.5 10.5H1.5C1.22386 10.5 1 10.2761 1 10C1 9.74358 1.19302 9.53225 1.44169 9.50336L1.5 9.5H2V2.5C2 1.97282 2.40794 1.54092 2.92537 1.50274L3 1.5H6.5ZM5.5 7.5H4V8.5H5.5V7.5ZM5.5 5.5H4V6.5H5.5V5.5ZM5.5 3.5H4V4.5H5.5V3.5Z" fill="white"/>
</g>
<defs>
<clipPath id="clip0_405_7677">
<rect width="12" height="12" fill="white"/>
</clipPath>
</defs>
</svg>
