<svg width="22" height="22" viewBox="0 0 22 22" fill="none" xmlns="http://www.w3.org/2000/svg">
<g id="noun-block-4744953 1">
<path id="Vector" d="M4.83997 6.59996V16.28C4.83997 16.7467 5.02539 17.1944 5.35546 17.5245C5.68552 17.8545 6.13318 18.04 6.59997 18.04H15.4C15.8667 18.04 16.3144 17.8545 16.6445 17.5245C16.9745 17.1944 17.16 16.7467 17.16 16.28V6.59996C17.16 5.89979 16.8818 5.2283 16.3867 4.7332C15.8916 4.2381 15.2201 3.95996 14.52 3.95996H7.47997C6.77979 3.95996 6.1083 4.2381 5.6132 4.7332C5.11811 5.2283 4.83997 5.89979 4.83997 6.59996ZM15.4 6.59996V16.28H11.88V15.18C11.88 14.9466 11.7873 14.7227 11.6222 14.5577C11.4572 14.3927 11.2334 14.3 11 14.3C10.7666 14.3 10.5427 14.3927 10.3777 14.5577C10.2127 14.7227 10.12 14.9466 10.12 15.18V16.28H6.59997V6.59996C6.59997 6.36657 6.69268 6.14274 6.85771 5.97771C7.02274 5.81268 7.24658 5.71996 7.47997 5.71996H14.52C14.7534 5.71996 14.9772 5.81268 15.1422 5.97771C15.3073 6.14274 15.4 6.36657 15.4 6.59996Z" fill="black"/>
<path id="Vector_2" d="M9.23999 9.23998C9.726 9.23998 10.12 8.84599 10.12 8.35998C10.12 7.87397 9.726 7.47998 9.23999 7.47998C8.75397 7.47998 8.35999 7.87397 8.35999 8.35998C8.35999 8.84599 8.75397 9.23998 9.23999 9.23998Z" fill="black"/>
<path id="Vector_3" d="M12.76 9.23998C13.246 9.23998 13.64 8.84599 13.64 8.35998C13.64 7.87397 13.246 7.47998 12.76 7.47998C12.274 7.47998 11.88 7.87397 11.88 8.35998C11.88 8.84599 12.274 9.23998 12.76 9.23998Z" fill="black"/>
<path id="Vector_4" d="M9.23999 12.76C9.726 12.76 10.12 12.366 10.12 11.88C10.12 11.394 9.726 11 9.23999 11C8.75397 11 8.35999 11.394 8.35999 11.88C8.35999 12.366 8.75397 12.76 9.23999 12.76Z" fill="black"/>
<path id="Vector_5" d="M12.76 12.76C13.246 12.76 13.64 12.366 13.64 11.88C13.64 11.394 13.246 11 12.76 11C12.274 11 11.88 11.394 11.88 11.88C11.88 12.366 12.274 12.76 12.76 12.76Z" fill="black"/>
</g>
</svg>
