<svg width="22" height="22" viewBox="0 0 22 22" fill="none" xmlns="http://www.w3.org/2000/svg">
<g id="noun-house-check-4745347 1">
<path id="Vector" d="M16.7662 7.22924L12.5862 4.44184C12.1164 4.12874 11.5645 3.96167 11 3.96167C10.4354 3.96167 9.88351 4.12874 9.41376 4.44184L5.23376 7.22924C4.84185 7.49046 4.52052 7.84442 4.2983 8.25968C4.07609 8.67495 3.95987 9.13866 3.95996 9.60964V15.4C3.95996 16.1002 4.2381 16.7717 4.7332 17.2668C5.2283 17.7619 5.89979 18.04 6.59996 18.04H15.4C16.1001 18.04 16.7716 17.7619 17.2667 17.2668C17.7618 16.7717 18.04 16.1002 18.04 15.4V9.60964C18.0401 9.13866 17.9238 8.67495 17.7016 8.25968C17.4794 7.84442 17.1581 7.49046 16.7662 7.22924ZM16.28 15.4C16.28 15.6334 16.1872 15.8573 16.0222 16.0223C15.8572 16.1873 15.6334 16.28 15.4 16.28H6.59996C6.36657 16.28 6.14274 16.1873 5.97771 16.0223C5.81267 15.8573 5.71996 15.6334 5.71996 15.4V9.60964C5.72005 9.42849 5.76489 9.25017 5.85047 9.09051C5.93606 8.93085 6.05975 8.7948 6.21056 8.69444L10.3906 5.90704C10.5713 5.78644 10.7838 5.72208 11.0011 5.72208C11.2184 5.72208 11.4308 5.78644 11.6116 5.90704L15.7916 8.69444C15.942 8.79505 16.0652 8.93121 16.1504 9.09086C16.2356 9.2505 16.2801 9.42869 16.28 9.60964V15.4Z" fill="black"/>
<path id="Vector_2" d="M12.3574 10.1551L10.34 12.1725L9.64262 11.4751C9.47749 11.31 9.25354 11.2172 9.02002 11.2172C8.7865 11.2172 8.56254 11.31 8.39742 11.4751C8.23229 11.6402 8.13953 11.8642 8.13953 12.0977C8.13953 12.3312 8.23229 12.5552 8.39742 12.7203L9.35002 13.6729C9.61275 13.9351 9.9688 14.0824 10.34 14.0824C10.7112 14.0824 11.0673 13.9351 11.33 13.6729L13.6026 11.4003C13.7677 11.2352 13.8605 11.0112 13.8605 10.7777C13.8605 10.5442 13.7677 10.3202 13.6026 10.1551C13.4375 9.98998 13.2135 9.89722 12.98 9.89722C12.7465 9.89722 12.5225 9.98998 12.3574 10.1551Z" fill="black"/>
</g>
</svg>
