<svg width="22" height="22" viewBox="0 0 22 22" fill="none" xmlns="http://www.w3.org/2000/svg">
<g id="noun-house-4745439 1">
<path id="Vector" d="M11.1386 8.36006C10.9554 8.33296 10.7684 8.36435 10.6041 8.44975C10.4398 8.53514 10.3066 8.6702 10.2235 8.83568C10.1404 9.00117 10.1116 9.18865 10.1412 9.37144C10.1709 9.55424 10.2574 9.72302 10.3886 9.85377C10.5197 9.98451 10.6887 10.0706 10.8716 10.0997C11.0545 10.1288 11.2419 10.0994 11.4071 10.0158C11.5724 9.93224 11.707 9.79865 11.7919 9.63408C11.8768 9.46952 11.9077 9.28236 11.88 9.09926C11.8519 8.91289 11.7647 8.74048 11.6312 8.60741C11.4977 8.47434 11.3251 8.38763 11.1386 8.36006Z" fill="black"/>
<path id="Vector_2" d="M16.7662 7.22924L12.6258 4.46824C12.3173 4.25819 11.9716 4.10885 11.6072 4.02824C11.2313 3.94602 10.8428 3.94047 10.4648 4.01191C10.0868 4.08336 9.72705 4.23033 9.40716 4.44404L5.22716 7.23144C4.83679 7.4932 4.51694 7.84714 4.29591 8.26194C4.07489 8.67674 3.9595 9.13963 3.95996 9.60964V15.84C3.95996 16.1289 4.01687 16.415 4.12743 16.6819C4.23799 16.9489 4.40004 17.1914 4.60433 17.3957C4.80862 17.6 5.05114 17.762 5.31806 17.8726C5.58498 17.9831 5.87105 18.04 6.15996 18.04H8.57996C8.93005 18.04 9.2658 17.901 9.51334 17.6534C9.76089 17.4059 9.89996 17.0701 9.89996 16.72V13.64H12.1V16.72C12.1 17.0701 12.239 17.4059 12.4866 17.6534C12.7341 17.901 13.0699 18.04 13.42 18.04H15.84C16.1289 18.04 16.415 17.9831 16.6819 17.8726C16.9488 17.762 17.1913 17.6 17.3956 17.3957C17.5999 17.1914 17.7619 16.9489 17.8725 16.6819C17.9831 16.415 18.04 16.1289 18.04 15.84V9.60964C18.0401 9.13866 17.9238 8.67494 17.7016 8.25968C17.4794 7.84441 17.1581 7.49045 16.7662 7.22924ZM16.28 15.84C16.28 15.9567 16.2336 16.0687 16.1511 16.1512C16.0686 16.2337 15.9567 16.28 15.84 16.28H13.86V13.2C13.86 12.85 13.7209 12.5142 13.4733 12.2667C13.2258 12.0191 12.89 11.88 12.54 11.88H9.45996C9.10988 11.88 8.77413 12.0191 8.52658 12.2667C8.27903 12.5142 8.13996 12.85 8.13996 13.2V16.28H6.15996C6.04327 16.28 5.93135 16.2337 5.84884 16.1512C5.76632 16.0687 5.71996 15.9567 5.71996 15.84V9.60964C5.72006 9.42849 5.76489 9.25016 5.85047 9.09051C5.93606 8.93085 6.05975 8.7948 6.21056 8.69444L10.3906 5.90704C10.5713 5.78644 10.7838 5.72207 11.0011 5.72207C11.2184 5.72207 11.4308 5.78644 11.6116 5.90704L15.7916 8.69444C15.942 8.79505 16.0652 8.93121 16.1504 9.09085C16.2356 9.25049 16.2801 9.42869 16.28 9.60964V15.84Z" fill="black"/>
</g>
</svg>
