<svg width="22" height="22" viewBox="0 0 22 22" fill="none" xmlns="http://www.w3.org/2000/svg">
<g id="noun-rent-4744961 1">
<path id="Vector" d="M5.72008 18.04H9.24008C9.70686 18.04 10.1545 17.8546 10.4846 17.5245C10.8147 17.1944 11.0001 16.7468 11.0001 16.28V14.08C11.0001 13.8068 10.9365 13.5373 10.8143 13.2929C10.6921 13.0485 10.5147 12.8359 10.2961 12.672L8.53608 11.352C8.23143 11.1235 7.86089 11 7.48008 11C7.09927 11 6.72873 11.1235 6.42408 11.352L4.66408 12.672C4.4455 12.8359 4.26808 13.0485 4.14589 13.2929C4.0237 13.5373 3.96008 13.8068 3.96008 14.08V16.28C3.96008 16.7468 4.14551 17.1944 4.47557 17.5245C4.80564 17.8546 5.2533 18.04 5.72008 18.04ZM5.72008 14.08L7.48008 12.76L9.24008 14.08V16.28H5.72008V14.08Z" fill="black"/>
<path id="Vector_2" d="M15.84 5.75936V4.87936C15.845 4.65494 15.7665 4.43666 15.6198 4.26678C15.4731 4.09689 15.2685 3.98749 15.0458 3.95976C14.9232 3.94775 14.7995 3.9616 14.6826 4.00042C14.5657 4.03923 14.4583 4.10215 14.3673 4.18509C14.2762 4.26803 14.2036 4.36916 14.1541 4.48193C14.1046 4.59471 14.0794 4.71661 14.08 4.83976V5.71976H12.32V4.87716C12.3244 4.65312 12.2457 4.43538 12.099 4.26596C11.9524 4.09654 11.7481 3.98745 11.5258 3.95976C11.4032 3.94775 11.2795 3.9616 11.1626 4.00042C11.0457 4.03923 10.9383 4.10215 10.8473 4.18509C10.7562 4.26803 10.6836 4.36916 10.6341 4.48193C10.5846 4.59471 10.5594 4.71661 10.56 4.83976V5.71976H8.79997V4.87716C8.8044 4.65312 8.72569 4.43538 8.57903 4.26596C8.43236 4.09654 8.22813 3.98745 8.00577 3.95976C7.8832 3.94775 7.75948 3.9616 7.6426 4.00042C7.52573 4.03923 7.4183 4.10215 7.32727 4.18509C7.23623 4.26803 7.16363 4.36916 7.11414 4.48193C7.06465 4.59471 7.03938 4.71661 7.03997 4.83976V5.75936C6.42526 5.86326 5.86716 6.18136 5.4645 6.6573C5.06183 7.13325 4.8406 7.73633 4.83997 8.35976V8.79976C4.83997 9.03315 4.93268 9.25698 5.09771 9.42201C5.26274 9.58705 5.48658 9.67976 5.71997 9.67976C5.95336 9.67976 6.17719 9.58705 6.34222 9.42201C6.50725 9.25698 6.59997 9.03315 6.59997 8.79976V8.35976C6.59997 8.12637 6.69268 7.90254 6.85771 7.73751C7.02274 7.57247 7.24658 7.47976 7.47997 7.47976H15.4C15.6334 7.47976 15.8572 7.57247 16.0222 7.73751C16.1873 7.90254 16.28 8.12637 16.28 8.35976V14.7398C16.28 14.9732 16.1873 15.197 16.0222 15.362C15.8572 15.527 15.6334 15.6198 15.4 15.6198H13.42C13.1866 15.6198 12.9627 15.7125 12.7977 15.8775C12.6327 16.0425 12.54 16.2664 12.54 16.4998C12.54 16.7332 12.6327 16.957 12.7977 17.122C12.9627 17.287 13.1866 17.3798 13.42 17.3798H15.4C16.1001 17.3798 16.7716 17.1016 17.2667 16.6065C17.7618 16.1114 18.04 15.4399 18.04 14.7398V8.35976C18.0393 7.73633 17.8181 7.13325 17.4154 6.6573C17.0128 6.18136 16.4547 5.86326 15.84 5.75936Z" fill="black"/>
</g>
</svg>
