<svg width="16" height="16" viewBox="0 0 16 16" fill="none" xmlns="http://www.w3.org/2000/svg">
<path fill-rule="evenodd" clip-rule="evenodd" d="M8 2.66675C8.3682 2.66675 8.66667 2.96523 8.66667 3.33341V7.33341H12.6667C13.0349 7.33341 13.3333 7.63188 13.3333 8.00008C13.3333 8.36828 13.0349 8.66675 12.6667 8.66675H8.66667V12.6667C8.66667 13.0349 8.3682 13.3334 8 13.3334C7.6318 13.3334 7.33334 13.0349 7.33334 12.6667V8.66675H3.33334C2.96515 8.66675 2.66667 8.36828 2.66667 8.00008C2.66667 7.63188 2.96515 7.33341 3.33334 7.33341H7.33334V3.33341C7.33334 2.96523 7.6318 2.66675 8 2.66675Z" fill="#0A7339"/>
</svg>
