<svg width="24" height="24" viewBox="0 0 24 24" fill="none" xmlns="http://www.w3.org/2000/svg">
<g id="location-svgrepo-com (2) 1" clip-path="url(#clip0_421_34306)">
<g id="&#233;&#161;&#181;&#233;&#157;&#162;-1">
<g id="Map">
<g id="location_fill">
<path id="&#229;&#189;&#162;&#231;&#138;&#182;" d="M12 1.99976C16.9706 1.99976 21 6.0292 21 10.9998C21 14.0736 19.3241 16.589 17.5584 18.3943C16.5897 19.3846 15.5597 20.1971 14.6817 20.8111L14.2564 21.1014C14.1879 21.147 14.1208 21.1912 14.0551 21.234L13.6789 21.4737L13.3429 21.6789L12.9271 21.9208C12.3479 22.2479 11.6521 22.2479 11.0729 21.9208L10.6571 21.6789L10.1377 21.3582C10.0749 21.3182 10.0106 21.2768 9.94491 21.234L9.53449 20.9604C8.61244 20.3312 7.49106 19.4672 6.44162 18.3943C4.6759 16.589 3 14.0736 3 10.9998C3 6.0292 7.02944 1.99976 12 1.99976ZM12 7.99976C10.3431 7.99976 9 9.34291 9 10.9998C9 12.6567 10.3431 13.9998 12 13.9998C13.6569 13.9998 15 12.6567 15 10.9998C15 9.34291 13.6569 7.99976 12 7.99976Z" fill="#0A7339"/>
</g>
</g>
</g>
</g>
<defs>
<clipPath id="clip0_421_34306">
<rect width="24" height="24" fill="white"/>
</clipPath>
</defs>
</svg>
