<svg width="24" height="24" viewBox="0 0 24 24" fill="none" xmlns="http://www.w3.org/2000/svg">
<g id="building-4-svgrepo-com 1" clip-path="url(#clip0_421_34246)">
<g id="&#233;&#161;&#181;&#233;&#157;&#162;-1">
<g id="Building">
<g id="building_4_fill">
<path id="&#229;&#189;&#162;&#231;&#138;&#182;" fill-rule="evenodd" clip-rule="evenodd" d="M10.7526 2.19688C10.1987 2.01225 9.59176 2.07887 9.09111 2.37926L4.97101 4.85132C4.3686 5.21277 4 5.86378 4 6.56631V20.0001H3C2.44772 20.0001 2 20.4478 2 21.0001C2 21.5524 2.44772 22.0001 3 22.0001H21C21.5523 22.0001 22 21.5524 22 21.0001C22 20.4478 21.5523 20.0001 21 20.0001H20V6.72088C20 5.86002 19.4491 5.09574 18.6325 4.82351L10.7526 2.19688ZM9 4.76631L6 6.56631V20.0001H9V4.76631Z" fill="#0A7339"/>
</g>
</g>
</g>
</g>
<defs>
<clipPath id="clip0_421_34246">
<rect width="24" height="24" fill="white"/>
</clipPath>
</defs>
</svg>
