<svg width="24" height="24" viewBox="0 0 24 24" fill="none" xmlns="http://www.w3.org/2000/svg">
<g clip-path="url(#clip0_421_34271)">
<path d="M3 19H4V6.3602C4 5.71455 4.41315 5.14135 5.02566 4.93717L13.0257 2.27051C13.997 1.94674 15 2.6697 15 3.69353V19H16V9.99027C16 9.67475 16.2887 9.4381 16.5981 9.49998L18.7941 9.9392C19.4953 10.0794 19.9999 10.695 19.9999 11.4101V19H21C21.5523 19 22 19.4477 22 20C22 20.5523 21.5523 21 21 21H3C2.44772 21 2 20.5523 2 20C2 19.4477 2.44772 19 3 19Z" fill="#0A7339"/>
</g>
<defs>
<clipPath id="clip0_421_34271">
<rect width="24" height="24" fill="white"/>
</clipPath>
</defs>
</svg>
