<svg width="28" height="28" viewBox="0 0 28 28" fill="none" xmlns="http://www.w3.org/2000/svg">
<g id="document-add-svgrepo-com (1) 1">
<path id="Vector" d="M19.2721 19.2516C19.4762 19.0923 19.6614 18.9072 20.0318 18.5368L24.6488 13.9198C24.7603 13.8083 24.7092 13.616 24.5601 13.5642C24.0152 13.3752 23.3062 13.0202 22.643 12.357C21.9799 11.6939 21.6249 10.9849 21.4359 10.44C21.3841 10.2908 21.1918 10.2397 21.0803 10.3514L16.4633 14.9683C16.0929 15.3387 15.9078 15.5238 15.7485 15.728C15.5607 15.9689 15.3996 16.2294 15.2682 16.5052C15.1568 16.7389 15.0739 16.9874 14.9084 17.4843L14.6943 18.1263L14.354 19.1472L14.0349 20.1044C13.9535 20.3489 14.0171 20.6184 14.1993 20.8008C14.3816 20.983 14.6511 21.0466 14.8957 20.9652L15.8529 20.6461L16.8738 20.3058L17.5158 20.0917C18.0125 19.9261 18.2612 19.8433 18.4948 19.7319C18.7706 19.6005 19.0312 19.4394 19.2721 19.2516Z" fill="#0A7339"/>
<path id="Vector_2" d="M26.0942 12.4743C27.0797 11.4889 27.0797 9.89122 26.0942 8.90581C25.1088 7.92039 23.5112 7.92039 22.5257 8.90581L22.3773 9.05424C22.234 9.19747 22.1692 9.39753 22.205 9.59692C22.2275 9.72233 22.2692 9.9057 22.3451 10.1245C22.4969 10.5621 22.7835 11.1365 23.3236 11.6764C23.8635 12.2165 24.438 12.5031 24.8755 12.6549C25.0944 12.7309 25.2776 12.7725 25.4031 12.795C25.6024 12.8308 25.8025 12.766 25.9458 12.6227L26.0942 12.4743Z" fill="#0A7339"/>
<path id="Vector_3" fill-rule="evenodd" clip-rule="evenodd" d="M4.86683 3.70008C3.5 5.06693 3.5 7.2668 3.5 11.6666V16.3333C3.5 20.733 3.5 22.933 4.86683 24.2997C6.23367 25.6666 8.43355 25.6666 12.8333 25.6666H15.1667C19.5664 25.6666 21.7664 25.6666 23.1331 24.2997C24.4781 22.9548 24.4996 20.8034 24.5 16.5434L21.212 19.8314C20.8972 20.1463 20.6395 20.4042 20.3484 20.6314C20.0073 20.8974 19.6383 21.1254 19.2478 21.3115C18.9145 21.4703 18.5685 21.5856 18.1461 21.7262L15.4491 22.6252C14.5757 22.9163 13.6129 22.689 12.9619 22.038C12.311 21.387 12.0836 20.4242 12.3748 19.5508L12.6939 18.5937L13.2482 16.9307L13.2737 16.8539C13.4144 16.4315 13.5296 16.0855 13.6884 15.7521C13.8745 15.3616 14.1025 14.9926 14.3687 14.6516C14.5957 14.3604 14.8537 14.1027 15.1686 13.7879L19.8428 9.11378L21.14 7.81663L21.2884 7.66821C22.123 6.83356 23.217 6.41636 24.311 6.41658C24.1345 5.21428 23.7931 4.36007 23.1331 3.70008C21.7664 2.33325 19.5664 2.33325 15.1667 2.33325H12.8333C8.43355 2.33325 6.23367 2.33325 4.86683 3.70008ZM8.45833 10.4999C8.45833 10.0167 8.85009 9.62492 9.33333 9.62492H16.9167C17.3999 9.62492 17.7917 10.0167 17.7917 10.4999C17.7917 10.9832 17.3999 11.3749 16.9167 11.3749H9.33333C8.85009 11.3749 8.45833 10.9832 8.45833 10.4999ZM8.45833 15.1666C8.45833 14.6834 8.85009 14.2916 9.33333 14.2916H12.25C12.7332 14.2916 13.125 14.6834 13.125 15.1666C13.125 15.6498 12.7332 16.0416 12.25 16.0416H9.33333C8.85009 16.0416 8.45833 15.6498 8.45833 15.1666ZM8.45833 19.8333C8.45833 19.35 8.85009 18.9583 9.33333 18.9583H11.0833C11.5666 18.9583 11.9583 19.35 11.9583 19.8333C11.9583 20.3165 11.5666 20.7083 11.0833 20.7083H9.33333C8.85009 20.7083 8.45833 20.3165 8.45833 19.8333Z" fill="#0A7339"/>
</g>
</svg>
