<svg width="28" height="28" viewBox="0 0 28 28" fill="none" xmlns="http://www.w3.org/2000/svg">
<g id="shield-user-svgrepo-com 1">
<path id="Vector" fill-rule="evenodd" clip-rule="evenodd" d="M3.5 12.1527C3.5 8.42217 3.5 6.55691 3.94044 5.9294C4.38087 5.30188 6.13471 4.70154 9.64239 3.50084L10.3107 3.27209C12.1392 2.6462 13.0534 2.33325 14 2.33325C14.9466 2.33325 15.8608 2.6462 17.6893 3.27209L18.3576 3.50084C21.8653 4.70154 23.6192 5.30188 24.0596 5.9294C24.5 6.55691 24.5 8.42217 24.5 12.1527V13.9899C24.5 20.5676 19.5545 23.7597 16.4516 25.1151C15.61 25.4827 15.1892 25.6666 14 25.6666C12.8108 25.6666 12.39 25.4827 11.5483 25.1151C8.44545 23.7597 3.5 20.5676 3.5 13.9899V12.1527ZM16.3333 10.4999C16.3333 11.7886 15.2887 12.8333 14 12.8333C12.7113 12.8333 11.6667 11.7886 11.6667 10.4999C11.6667 9.21125 12.7113 8.16658 14 8.16658C15.2887 8.16658 16.3333 9.21125 16.3333 10.4999ZM14 19.8333C18.6667 19.8333 18.6667 18.7886 18.6667 17.4999C18.6667 16.2112 16.5773 15.1666 14 15.1666C11.4227 15.1666 9.33333 16.2112 9.33333 17.4999C9.33333 18.7886 9.33333 19.8333 14 19.8333Z" fill="#0A7339"/>
</g>
</svg>
