<svg width="28" height="28" viewBox="0 0 28 28" fill="none" xmlns="http://www.w3.org/2000/svg">
<g id="buildings-svgrepo-com 1">
<path id="Vector" fill-rule="evenodd" clip-rule="evenodd" d="M17.5002 2.33325H19.8335C22.0334 2.33325 23.1333 2.33325 23.8167 3.01667C24.5002 3.70008 24.5002 4.80003 24.5002 6.99992V24.7916H25.6668C26.1501 24.7916 26.5418 25.1834 26.5418 25.6666C26.5418 26.1498 26.1501 26.5416 25.6668 26.5416H2.3335C1.85025 26.5416 1.4585 26.1498 1.4585 25.6666C1.4585 25.1834 1.85025 24.7916 2.3335 24.7916H3.50016V10.4999C3.50016 8.30003 3.50016 7.20008 4.18358 6.51667C4.86699 5.83325 5.96694 5.83325 8.16683 5.83325H12.8335C15.0334 5.83325 16.1333 5.83325 16.8167 6.51667C17.5002 7.20008 17.5002 8.30003 17.5002 10.4999V24.7916H19.2502V10.4999V10.3955C19.2503 9.38561 19.2504 8.45966 19.1491 7.70644C19.0376 6.87698 18.7752 6.00028 18.0542 5.27924C17.3331 4.55818 16.4565 4.29581 15.627 4.18429C14.8844 4.08444 13.9738 4.08315 12.9805 4.08324C13.0788 3.63146 13.243 3.29061 13.5169 3.01667C14.2004 2.33325 15.3003 2.33325 17.5002 2.33325ZM6.12516 9.33325C6.12516 8.85001 6.51692 8.45825 7.00016 8.45825H14.0002C14.4834 8.45825 14.8752 8.85001 14.8752 9.33325C14.8752 9.8165 14.4834 10.2083 14.0002 10.2083H7.00016C6.51692 10.2083 6.12516 9.8165 6.12516 9.33325ZM6.12516 12.8333C6.12516 12.35 6.51692 11.9583 7.00016 11.9583H14.0002C14.4834 11.9583 14.8752 12.35 14.8752 12.8333C14.8752 13.3165 14.4834 13.7083 14.0002 13.7083H7.00016C6.51692 13.7083 6.12516 13.3165 6.12516 12.8333ZM6.12516 16.3333C6.12516 15.85 6.51692 15.4583 7.00016 15.4583H14.0002C14.4834 15.4583 14.8752 15.85 14.8752 16.3333C14.8752 16.8165 14.4834 17.2083 14.0002 17.2083H7.00016C6.51692 17.2083 6.12516 16.8165 6.12516 16.3333ZM10.5002 21.2916C10.9834 21.2916 11.3752 21.6834 11.3752 22.1666V24.7916H9.62516V22.1666C9.62516 21.6834 10.0169 21.2916 10.5002 21.2916Z" fill="#0A7339"/>
</g>
</svg>
