<svg width="28" height="28" viewBox="0 0 28 28" fill="none" xmlns="http://www.w3.org/2000/svg">
<g id="sale-svgrepo-com 1">
<path id="Vector" fill-rule="evenodd" clip-rule="evenodd" d="M11.1913 3.73357C10.9072 3.97569 10.7651 4.09677 10.6134 4.19845C10.2656 4.43155 9.87503 4.59333 9.46428 4.67443C9.28509 4.70981 9.09903 4.72465 8.72693 4.75434C7.79198 4.82896 7.3245 4.86626 6.93449 5.00402C6.03243 5.32264 5.32288 6.03218 5.00427 6.93425C4.86651 7.32425 4.82921 7.79174 4.75459 8.72668C4.7249 9.09879 4.71006 9.28485 4.67467 9.46404C4.59358 9.87479 4.4318 10.2654 4.1987 10.6132C4.09701 10.7649 3.97594 10.9069 3.73381 11.1911C3.12547 11.9049 2.82128 12.2618 2.64292 12.635C2.23035 13.4983 2.23035 14.5016 2.64292 15.3648C2.82129 15.738 3.12547 16.0949 3.73381 16.8088C3.97591 17.0929 4.09701 17.235 4.1987 17.3866C4.4318 17.7344 4.59358 18.125 4.67467 18.5358C4.71006 18.715 4.7249 18.9011 4.75459 19.2731C4.82921 20.2081 4.86651 20.6756 5.00427 21.0656C5.32288 21.9677 6.03243 22.6772 6.93449 22.9959C7.3245 23.1335 7.79198 23.1709 8.72693 23.2455C9.09903 23.2752 9.28509 23.2901 9.46428 23.3254C9.87503 23.4065 10.2656 23.5683 10.6134 23.8014C10.7651 23.9031 10.9072 24.0242 11.1913 24.2662C11.9052 24.8747 12.2621 25.1788 12.6353 25.3572C13.4985 25.7697 14.5018 25.7697 15.365 25.3572C15.7383 25.1788 16.0951 24.8747 16.809 24.2662C17.0931 24.0242 17.2352 23.9031 17.3869 23.8014C17.7347 23.5683 18.1253 23.4065 18.536 23.3254C18.7153 23.2901 18.9013 23.2752 19.2734 23.2455C20.2083 23.1709 20.6758 23.1335 21.0658 22.9959C21.9679 22.6772 22.6775 21.9677 22.9961 21.0656C23.1338 20.6756 23.1711 20.2081 23.2458 19.2731C23.2754 18.9011 23.2903 18.715 23.3257 18.5358C23.4068 18.125 23.5686 17.7344 23.8017 17.3866C23.9033 17.235 24.0244 17.0929 24.2665 16.8088C24.8749 16.0949 25.179 15.738 25.3574 15.3648C25.77 14.5016 25.77 13.4983 25.3574 12.635C25.179 12.2618 24.8749 11.9049 24.2665 11.1911C24.0244 10.9069 23.9033 10.7649 23.8017 10.6132C23.5686 10.2654 23.4068 9.87479 23.3257 9.46404C23.2903 9.28485 23.2754 9.09879 23.2458 8.72668C23.1711 7.79174 23.1338 7.32425 22.9961 6.93425C22.6775 6.03218 21.9679 5.32264 21.0658 5.00402C20.6758 4.86626 20.2083 4.82896 19.2734 4.75434C18.9013 4.72465 18.7153 4.70981 18.536 4.67443C18.1253 4.59333 17.7347 4.43155 17.3869 4.19845C17.2352 4.09677 17.0931 3.9757 16.809 3.73357C16.0951 3.12522 15.7383 2.82105 15.365 2.64268C14.5018 2.23011 13.4985 2.23011 12.6353 2.64268C12.2621 2.82104 11.9052 3.12522 11.1913 3.73357ZM18.4695 9.53111C18.8403 9.90191 18.8403 10.5031 18.4695 10.8739L10.8735 18.4699C10.5027 18.8408 9.90154 18.8408 9.53074 18.4699C9.15993 18.0991 9.15993 17.4979 9.53074 17.1272L17.1267 9.53111C17.4976 9.16031 18.0988 9.16031 18.4695 9.53111ZM18.4312 17.1656C18.4312 17.8647 17.8644 18.4315 17.1652 18.4315C16.4659 18.4315 15.8991 17.8647 15.8991 17.1656C15.8991 16.4664 16.4659 15.8995 17.1652 15.8995C17.8644 15.8995 18.4312 16.4664 18.4312 17.1656ZM10.8351 12.1015C11.5343 12.1015 12.1012 11.5347 12.1012 10.8355C12.1012 10.1363 11.5343 9.5695 10.8351 9.5695C10.1359 9.5695 9.56913 10.1363 9.56913 10.8355C9.56913 11.5347 10.1359 12.1015 10.8351 12.1015Z" fill="#0A7339"/>
</g>
</svg>
