<svg width="28" height="28" viewBox="0 0 28 28" fill="none" xmlns="http://www.w3.org/2000/svg">
<g id="eye-svgrepo-com 1">
<path id="Vector" d="M11.375 14C11.375 12.5503 12.5503 11.375 14 11.375C15.4497 11.375 16.625 12.5503 16.625 14C16.625 15.4497 15.4497 16.625 14 16.625C12.5503 16.625 11.375 15.4497 11.375 14Z" fill="#0A7339"/>
<path id="Vector_2" fill-rule="evenodd" clip-rule="evenodd" d="M2.3335 14.0001C2.3335 15.9127 2.82928 16.5568 3.82087 17.8451C5.80078 20.4172 9.12129 23.3334 14.0002 23.3334C18.879 23.3334 22.1995 20.4172 24.1794 17.8451C25.171 16.5568 25.6668 15.9127 25.6668 14.0001C25.6668 12.0874 25.171 11.4434 24.1794 10.1551C22.1995 7.5829 18.879 4.66675 14.0002 4.66675C9.12129 4.66675 5.80078 7.5829 3.82087 10.1551C2.82928 11.4434 2.3335 12.0874 2.3335 14.0001ZM14.0002 9.62508C11.5839 9.62508 9.62516 11.5838 9.62516 14.0001C9.62516 16.4164 11.5839 18.3751 14.0002 18.3751C16.4164 18.3751 18.3752 16.4164 18.3752 14.0001C18.3752 11.5838 16.4164 9.62508 14.0002 9.62508Z" fill="#0A7339"/>
</g>
</svg>
