<svg width="28" height="28" viewBox="0 0 28 28" fill="none" xmlns="http://www.w3.org/2000/svg">
<g id="magnet-wave-svgrepo-com 1">
<path id="Vector" d="M15.9768 3.5H12.8335C7.0345 3.5 2.3335 8.20101 2.3335 14C2.3335 19.799 7.03451 24.5 12.8335 24.5H15.9768V19.25H12.7686C9.86918 19.25 7.51868 16.8995 7.51868 14C7.51868 11.1005 9.86918 8.75 12.7686 8.75H15.9768V3.5Z" fill="#0A7339"/>
<path id="Vector_2" d="M17.7266 8.75H19.2499C20.2163 8.75 20.9999 7.9665 20.9999 7V5.25C20.9999 4.2835 20.2163 3.5 19.2499 3.5H17.7266V8.75Z" fill="#0A7339"/>
<path id="Vector_3" d="M17.7266 19.25V24.5H19.2499C20.2163 24.5 20.9999 23.7165 20.9999 22.75V21C20.9999 20.0335 20.2163 19.25 19.2499 19.25H17.7266Z" fill="#0A7339"/>
<path id="Vector_4" d="M23.515 10.075C23.2804 9.65254 22.7477 9.50034 22.3252 9.73503C21.9064 9.96772 21.7532 10.4934 21.9793 10.9141L21.9852 10.926C21.9932 10.9428 22.0085 10.9763 22.0289 11.0272C22.0696 11.129 22.1308 11.3008 22.1942 11.5485C22.321 12.0432 22.4585 12.845 22.4585 13.9999C22.4585 15.1548 22.321 15.9566 22.1942 16.4513C22.1308 16.699 22.0696 16.8709 22.0289 16.9726C22.0085 17.0236 21.9932 17.057 21.9852 17.0738L21.9793 17.0858C21.7532 17.5065 21.9064 18.0321 22.3252 18.2648C22.7477 18.4995 23.2804 18.3473 23.515 17.9248L22.7501 17.4999C23.515 17.9248 23.515 17.9248 23.515 17.9248L23.5158 17.9233L23.5168 17.9217L23.5187 17.9182L23.5232 17.9099L23.5345 17.8884C23.5429 17.872 23.5533 17.8513 23.5652 17.8262C23.5891 17.7761 23.6194 17.7084 23.6537 17.6225C23.7223 17.4508 23.807 17.2071 23.8894 16.886C24.0542 16.2432 24.2085 15.295 24.2085 13.9999C24.2085 12.7048 24.0542 11.7567 23.8894 11.1138C23.807 10.7928 23.7223 10.549 23.6537 10.3773C23.6194 10.2915 23.5891 10.2238 23.5652 10.1736C23.5533 10.1485 23.5429 10.1278 23.5345 10.1114L23.5232 10.09L23.5187 10.0817L23.5168 10.0781L23.5158 10.0765C23.5158 10.0765 23.515 10.075 22.7501 10.4999L23.515 10.075Z" fill="#0A7339"/>
<path id="Vector_5" d="M27.4205 17.3203C27.2466 18.2588 27.0133 19.0325 26.7752 19.6517C26.5375 20.2698 26.2961 20.7307 26.1073 21.0456C26.0129 21.2029 25.9317 21.3235 25.8708 21.4088C25.8403 21.4515 25.8149 21.4853 25.7954 21.5105C25.7857 21.5231 25.7774 21.5335 25.7708 21.5418L25.762 21.5527L25.7585 21.5569L25.757 21.5586L25.7557 21.5602C25.4463 21.9315 24.8946 21.9816 24.5234 21.6722C24.1539 21.3644 24.1025 20.8165 24.4068 20.4453L24.4109 20.44C24.4171 20.4321 24.4294 20.416 24.4467 20.3916C24.4815 20.3429 24.537 20.2613 24.6067 20.1452C24.7459 19.913 24.9421 19.5428 25.1418 19.0234C25.3303 18.5336 25.523 17.9082 25.6738 17.1376C25.8222 16.3793 25.9303 15.4803 25.9537 14.4312C25.9569 14.2902 25.9585 14.1464 25.9585 14C25.9585 13.4142 25.9324 12.8722 25.887 12.3724C25.7507 10.8731 25.4409 9.75422 25.1418 8.97667C24.9421 8.45725 24.7459 8.08703 24.6067 7.85493C24.537 7.73883 24.4815 7.65712 24.4467 7.60845C24.4294 7.58413 24.4171 7.56805 24.4109 7.56007L24.4068 7.55485C24.1025 7.18367 24.1539 6.63571 24.5234 6.32783C24.8946 6.01846 25.4463 6.06862 25.7557 6.43986L25.757 6.44147L25.7585 6.44327L25.762 6.44748L25.7708 6.45829C25.7774 6.46658 25.7857 6.477 25.7954 6.48958C25.8149 6.51476 25.8403 6.54858 25.8708 6.59125C25.9317 6.67657 26.0129 6.7972 26.1073 6.95452C26.2961 7.26932 26.5375 7.73033 26.7752 8.34841C27.1267 9.26212 27.4676 10.5125 27.6222 12.1324C27.6771 12.7078 27.7085 13.3299 27.7085 14" fill="#0A7339"/>
<path id="Vector_6" d="M27.7085 14C27.7085 15.2784 27.5942 16.3817 27.4204 17.3203L27.7085 14Z" fill="#0A7339"/>
</g>
</svg>
