<svg width="28" height="28" viewBox="0 0 28 28" fill="none" xmlns="http://www.w3.org/2000/svg">
<path fill-rule="evenodd" clip-rule="evenodd" d="M11.4076 24.5H16.5927C20.234 24.5 22.0546 24.5 23.3624 23.642C23.9285 23.2706 24.4146 22.7933 24.793 22.2375C25.6668 20.9534 25.6668 19.1659 25.6668 15.5909C25.6668 12.016 25.6668 10.2284 24.793 8.94437C24.4146 8.3885 23.9285 7.91121 23.3624 7.53979C22.522 6.98848 21.47 6.79143 19.8592 6.721C19.0904 6.721 18.4287 6.14913 18.278 5.40909C18.0518 4.29904 17.059 3.5 15.9061 3.5H12.0942C10.9412 3.5 9.9485 4.29904 9.72238 5.40909C9.57164 6.14913 8.90982 6.721 8.14116 6.721C6.53038 6.79143 5.4783 6.98848 4.63794 7.53979C4.07177 7.91121 3.58566 8.3885 3.20735 8.94437C2.3335 10.2284 2.3335 12.016 2.3335 15.5909C2.3335 19.1659 2.3335 20.9534 3.20735 22.2375C3.58566 22.7933 4.07177 23.2706 4.63794 23.642C5.94578 24.5 7.76637 24.5 11.4076 24.5ZM14.0002 10.8182C11.3154 10.8182 9.13905 12.955 9.13905 15.5909C9.13905 18.2268 11.3154 20.3636 14.0002 20.3636C16.6849 20.3636 18.8613 18.2268 18.8613 15.5909C18.8613 12.955 16.6849 10.8182 14.0002 10.8182ZM14.0002 12.7273C12.3893 12.7273 11.0835 14.0093 11.0835 15.5909C11.0835 17.1724 12.3893 18.4546 14.0002 18.4546C15.611 18.4546 16.9168 17.1724 16.9168 15.5909C16.9168 14.0093 15.611 12.7273 14.0002 12.7273ZM19.5094 11.7727C19.5094 11.2455 19.9447 10.8182 20.4817 10.8182H21.778C22.3149 10.8182 22.7502 11.2455 22.7502 11.7727C22.7502 12.2999 22.3149 12.7273 21.778 12.7273H20.4817C19.9447 12.7273 19.5094 12.2999 19.5094 11.7727Z" fill="#0A7339"/>
</svg>
