<svg width="28" height="28" viewBox="0 0 28 28" fill="none" xmlns="http://www.w3.org/2000/svg">
<g id="map-point-search-svgrepo-com 1">
<path id="Vector" fill-rule="evenodd" clip-rule="evenodd" d="M14.0003 2.33325C8.84566 2.33325 4.66699 6.58678 4.66699 11.8338C4.66699 17.0397 7.64586 23.1144 12.2936 25.2867C13.377 25.7932 14.6237 25.7932 15.707 25.2867C20.3548 23.1144 23.3337 17.0397 23.3337 11.8338C23.3337 6.58678 19.155 2.33325 14.0003 2.33325ZM9.62532 11.6666C9.62532 9.25034 11.5841 7.29158 14.0003 7.29158C16.4166 7.29158 18.3753 9.25034 18.3753 11.6666C18.3753 12.5565 18.109 13.3852 17.6525 14.0761L18.704 15.1333C19.0448 15.476 19.0432 16.03 18.7006 16.3708C18.3579 16.7116 17.8039 16.7101 17.4631 16.3674L16.416 15.3145C15.724 15.7736 14.8929 16.0416 14.0003 16.0416C11.5841 16.0416 9.62532 14.0829 9.62532 11.6666ZM11.3753 11.6666C11.3753 10.2168 12.5506 9.04158 14.0003 9.04158C15.45 9.04158 16.6253 10.2168 16.6253 11.6666C16.6253 12.3902 16.3338 13.044 15.8596 13.5196C15.3833 13.9975 14.727 14.2916 14.0003 14.2916C12.5506 14.2916 11.3753 13.1163 11.3753 11.6666Z" fill="#0A7339"/>
</g>
</svg>
