<svg width="28" height="28" viewBox="0 0 28 28" fill="none" xmlns="http://www.w3.org/2000/svg">
<g id="monitor-camera-svgrepo-com 1">
<path id="Vector" d="M18.6667 2.33325H17.5C15.8501 2.33325 15.0251 2.33325 14.5125 2.84582C14 3.35838 14 4.18334 14 5.83325C14 7.48316 14 8.30813 14.5125 8.82069C15.0251 9.33325 15.8501 9.33325 17.5 9.33325H18.6667C20.3166 9.33325 21.1415 9.33325 21.6541 8.82069C21.9862 8.4886 22.1031 8.02536 22.1443 7.29158H22.1667L24.0513 8.07685C24.7819 8.38125 25.1471 8.53345 25.407 8.36029C25.6667 8.18711 25.6667 7.79137 25.6667 6.99992V4.66659C25.6667 3.87513 25.6667 3.4794 25.407 3.30622C25.1471 3.13305 24.7819 3.28525 24.0513 3.58966L22.1667 4.37492H22.1443C22.1031 3.64114 21.9862 3.17791 21.6541 2.84582C21.1415 2.33325 20.3166 2.33325 18.6667 2.33325Z" fill="#0A7339"/>
<path id="Vector_2" d="M9.33319 19.8333C6.03335 19.8333 4.38344 19.8333 3.35831 18.8082C2.69413 18.144 2.46027 17.2175 2.37793 15.75H25.6217C25.5395 17.2175 25.3056 18.144 24.6414 18.8082C23.6162 19.8333 21.9663 19.8333 18.6665 19.8333H14.8749V24.5H18.6665C19.1498 24.5 19.5415 24.8918 19.5415 25.375C19.5415 25.8582 19.1498 26.25 18.6665 26.25H9.33319C8.84994 26.25 8.45819 25.8582 8.45819 25.375C8.45819 24.8918 8.84994 24.5 9.33319 24.5H13.1249V19.8333H9.33319Z" fill="#0A7339"/>
<path id="Vector_3" d="M25.6668 11.6666V12.8333C25.6668 13.4768 25.6668 14.0576 25.6592 14.5833H2.3411C2.3335 14.0576 2.3335 13.4768 2.3335 12.8333V11.6666C2.3335 7.26681 2.3335 5.06693 3.70033 3.70008C5.06717 2.33325 7.26705 2.33325 11.6668 2.33325H12.7379C12.4985 2.78164 12.3876 3.25017 12.3298 3.67984C12.2498 4.27469 12.25 4.99591 12.2502 5.73804V5.83325V5.92846C12.25 6.67059 12.2498 7.39181 12.3298 7.98666C12.42 8.65726 12.6397 9.4225 13.2753 10.0581C13.9109 10.6937 14.6761 10.9134 15.3467 11.0036C15.9416 11.0836 16.6628 11.0834 17.405 11.0833L17.5002 11.0833H18.6668L18.762 11.0833C19.5041 11.0834 20.2254 11.0836 20.8203 11.0036C21.4909 10.9134 22.2561 10.6937 22.8917 10.0581C23.0269 9.92294 23.1434 9.78162 23.244 9.63626L23.3784 9.69222L23.4446 9.71986C23.7477 9.84648 24.1316 10.0069 24.4764 10.0941C24.7489 10.1631 25.1835 10.2367 25.6643 10.1259C25.6668 10.6072 25.6668 11.1199 25.6668 11.6666Z" fill="#0A7339"/>
</g>
</svg>
