<svg width="28" height="28" viewBox="0 0 28 28" fill="none" xmlns="http://www.w3.org/2000/svg">
<g id="clipboard-check-svgrepo-com (1) 1">
<path id="Vector" d="M11.0835 2.33325C10.117 2.33325 9.3335 3.11675 9.3335 4.08325V5.24992C9.3335 6.21642 10.117 6.99992 11.0835 6.99992H16.9168C17.8833 6.99992 18.6668 6.21642 18.6668 5.24992V4.08325C18.6668 3.11675 17.8833 2.33325 16.9168 2.33325H11.0835Z" fill="#0A7339"/>
<path id="Vector_2" fill-rule="evenodd" clip-rule="evenodd" d="M7.58333 4.70947C6.11577 4.7918 5.18931 5.02566 4.52513 5.68985C3.5 6.71497 3.5 8.36488 3.5 11.6647V18.6648C3.5 21.9646 3.5 23.6145 4.52513 24.6396C5.55025 25.6648 7.20017 25.6648 10.5 25.6648H17.5C20.7998 25.6648 22.4497 25.6648 23.4748 24.6396C24.5 23.6145 24.5 21.9646 24.5 18.6648V11.6647C24.5 8.36488 24.5 6.71497 23.4748 5.68985C22.8107 5.02566 21.8842 4.7918 20.4167 4.70947V5.25008C20.4167 7.18307 18.8497 8.75008 16.9167 8.75008H11.0833C9.15034 8.75008 7.58333 7.18307 7.58333 5.25008V4.70947ZM18.097 14.6398C18.4504 14.3101 18.4694 13.7564 18.1397 13.4031C17.81 13.0498 17.2563 13.0307 16.903 13.3604L12.5 17.4699L11.097 16.1604C10.7438 15.8307 10.1901 15.8498 9.86033 16.2031C9.5306 16.5564 9.54969 17.1101 9.90297 17.4398L11.9029 19.3064C12.2392 19.6201 12.7609 19.6201 13.097 19.3064L18.097 14.6398Z" fill="#0A7339"/>
</g>
</svg>
