<svg width="44" height="44" viewBox="0 0 44 44" fill="none" xmlns="http://www.w3.org/2000/svg">
<g id="noun-mother-3500171 1">
<path id="Vector" fill-rule="evenodd" clip-rule="evenodd" d="M16.0323 4.4031C14.7342 4.35431 13.5305 4.86837 12.7071 5.64547C11.766 6.53359 11.2386 7.81821 11.5265 9.14567C11.7807 10.3175 12.6923 11.4277 14.1867 12.2356C14.0575 13.1355 14.0954 13.81 14.099 13.8516C14.0901 13.9496 13.8954 15.9614 14.5269 18.1815C14.5661 18.3191 14.6204 18.4598 14.6661 18.5987C14.6652 18.5987 14.667 18.5987 14.6661 18.5987C13.7336 19.0549 12.9029 19.6957 12.1709 20.46C11.4389 21.2243 10.8054 22.116 10.2892 23.0869C9.77297 24.0577 9.37753 25.1175 9.12151 26.2134C8.8655 27.3093 8.75057 28.4431 8.81992 29.583C8.88927 30.7229 9.14023 31.8642 9.61643 32.9548C10.0926 34.0454 10.7943 35.0868 11.7508 36.0034C12.7073 36.92 13.9155 37.7136 15.375 38.3254C16.8345 38.9373 18.545 39.3688 20.5201 39.5907C20.8677 39.6296 21.2184 39.5441 21.4951 39.353C21.7718 39.1619 21.9518 38.8809 21.9956 38.5718C22.0393 38.2627 21.9432 37.9508 21.7284 37.7047C21.5136 37.4587 21.1976 37.2985 20.85 37.2596C19.111 37.0642 17.6822 36.6957 16.5066 36.2029C15.331 35.71 14.41 35.1011 13.6892 34.4103C12.9684 33.7196 12.4374 32.9391 12.073 32.1044C11.7085 31.2697 11.5154 30.3734 11.4595 29.4546C11.4036 28.5358 11.4889 27.6017 11.7018 26.6902C11.9147 25.7787 12.2505 24.8914 12.6762 24.0908C13.1019 23.2903 13.6146 22.5731 14.1764 21.9866C14.6797 21.461 15.2209 21.063 15.7539 20.774C15.94 21.0254 16.144 21.2697 16.3777 21.5007C17.3711 22.4824 18.8766 23.1927 20.7237 23.2336C22.5832 23.2746 24.1262 22.5859 25.1187 21.5969C26.0081 20.7106 26.5031 19.6389 26.8174 18.5896C27.4772 18.69 28.3478 18.8769 29.3178 19.3254C30.1889 19.7281 31.0215 20.2682 31.6274 21.0995C31.0889 20.9339 30.5202 20.8245 29.9209 20.8245C27.4794 20.8245 25.4243 22.3268 24.83 24.3384C24.6131 24.3547 24.4041 24.4185 24.2216 24.5241C21.1823 26.223 19.6525 28.3662 19.4271 30.4403C19.2017 32.5143 20.2802 34.4045 21.9997 35.5014C23.7191 36.5983 26.1504 36.8986 28.382 35.9163C30.6137 34.9341 32.5578 32.7732 33.8184 29.2368C33.9072 29.0276 33.9269 28.8001 33.8751 28.5813C34.6254 27.8188 35.0989 26.8497 35.1691 25.7802C35.1895 25.6981 35.1998 25.6144 35.2 25.5303V25.512V24.343C35.2 20.555 32.809 18.2979 30.5344 17.2463C29.3082 16.6794 28.1229 16.4102 27.2608 16.2721C27.3967 14.8516 27.296 13.7615 27.2917 13.7209C27.2928 13.6638 27.3254 12.1231 26.539 10.4637C25.7381 8.77377 23.8021 6.89123 20.5201 6.85117C20.3835 6.8495 20.2609 6.86937 20.1283 6.8741C19.1734 5.50505 17.9268 4.67861 16.5943 4.4604C16.4058 4.42955 16.2178 4.41007 16.0323 4.4031ZM15.7075 6.7549C15.8412 6.74451 15.9774 6.75075 16.1148 6.77324C16.4692 6.83126 16.9091 7.04149 17.3701 7.50216C17.0639 7.64982 16.7795 7.8171 16.5247 8.00415C15.8015 8.53486 15.2978 9.17874 14.9445 9.83104C14.4314 9.43624 14.1947 9.04232 14.1197 8.6964C14.0058 8.17158 14.2171 7.63487 14.6249 7.25002C14.9307 6.96138 15.3066 6.78606 15.7075 6.7549ZM20.4814 9.19839C22.0889 9.218 22.9532 9.72065 23.5205 10.4224C23.1626 10.7258 22.6275 11.1195 21.912 11.5021C20.6763 12.1628 18.9859 12.7353 16.7902 12.6046C16.844 12.1996 16.9295 11.7507 17.1098 11.2958C17.3441 10.7047 17.7013 10.1788 18.2002 9.8127C18.699 9.44661 19.3543 9.18462 20.4814 9.19839ZM24.5336 12.7353C24.6461 13.3172 24.6599 13.7553 24.6599 13.7553C24.6613 13.7929 24.6647 13.8303 24.6701 13.8676C24.6701 13.8676 24.8432 15.8427 24.3582 17.6979C24.1158 18.6255 23.7045 19.4827 23.1493 20.0359C22.5941 20.5892 21.9682 20.9123 20.7933 20.8863C19.6061 20.8601 18.9266 20.5056 18.3471 19.9328C17.7675 19.36 17.3458 18.5132 17.0891 17.6108C16.7986 16.5894 16.7277 15.6547 16.7128 14.9404C19.4618 15.0755 21.7077 14.3507 23.2756 13.5123C23.7515 13.2579 24.1696 12.9927 24.5336 12.7353ZM29.9209 23.1717C31.3946 23.1717 32.5605 24.2016 32.5605 25.512C32.5605 26.8224 31.3946 27.8592 29.9209 27.8592C28.4473 27.8592 27.2814 26.8224 27.2814 25.512C27.2814 24.2016 28.4473 23.1717 29.9209 23.1717ZM24.9176 26.9401C25.6056 28.8239 27.5837 30.2064 29.9209 30.2064C30.1573 30.2064 30.3833 30.1718 30.6118 30.1446C29.581 32.2041 28.3299 33.3166 27.204 33.8121C25.8122 34.4247 24.5302 34.2269 23.5386 33.5943C22.5469 32.9617 21.9152 31.8952 22.0487 30.6672C22.1687 29.5625 22.9168 28.2325 24.9176 26.9401Z" fill="#0A7339"/>
</g>
</svg>
