<svg width="16" height="16" viewBox="0 0 16 16" fill="none" xmlns="http://www.w3.org/2000/svg">
<g id="fire-svgrepo-com 1" clip-path="url(#clip0_103_3496)">
<g id="fire">
<path id="path-1" fill-rule="evenodd" clip-rule="evenodd" d="M13.8603 10.3408C13.7288 13.4817 11.1419 15.988 7.96859 15.988C4.71118 15.988 2.07055 13.2586 2.07055 10.09C2.07055 9.66643 2.06296 8.82 2.698 7.39192C3.07805 6.53727 3.31642 6.00036 3.45095 5.50957C3.52486 5.23983 3.66861 4.81128 4.0784 5.50957C4.32003 5.9213 4.32938 6.51349 4.32938 6.51349C4.32938 6.51349 5.22839 5.82361 5.83526 4.50565C6.72492 2.57354 6.01509 1.41859 5.77251 0.615452C5.68856 0.337617 5.63586 -0.161708 6.21173 0.0507465C6.79852 0.26728 8.34983 1.35321 9.16075 2.49781C10.3181 4.13137 10.7294 5.6978 10.7294 5.6978C10.7294 5.6978 11.0999 5.23788 11.2313 4.75663C11.3797 4.21319 11.3819 3.67497 11.8587 4.25473C12.3122 4.80607 12.9856 5.84218 13.3647 6.82722C14.0529 8.61602 13.8603 10.3408 13.8603 10.3408Z" fill="url(#paint0_linear_103_3496)"/>
<path id="path-2" fill-rule="evenodd" clip-rule="evenodd" d="M7.96858 15.988C5.71609 15.988 3.89014 14.162 3.89014 11.9096C3.89014 10.5504 4.43785 9.72528 5.57774 8.60628C6.30759 7.88979 6.99069 7.00979 7.28102 6.41058C7.33818 6.29262 7.46825 5.6779 7.96977 6.39765C8.23286 6.77513 8.64528 7.44644 8.90975 8.01936C9.36566 9.00716 9.47446 9.96446 9.47446 9.96446C9.47446 9.96446 9.92127 9.70118 10.2274 9.02328C10.3261 8.80481 10.5256 7.9777 11.0834 8.80468C11.4927 9.41155 12.055 10.5027 12.047 11.9096C12.047 14.162 10.221 15.988 7.96858 15.988Z" fill="#FC9502"/>
<path id="path-3" fill-rule="evenodd" clip-rule="evenodd" d="M8.03134 11.5332C8.61174 11.5332 8.61174 12.608 9.34899 14.043C9.83991 14.9986 9.1056 15.9881 8.03134 15.9881C6.95708 15.9881 6.39997 15.1173 6.39997 14.043C6.39997 12.9688 7.45095 11.5332 8.03134 11.5332Z" fill="#FCE202"/>
</g>
</g>
<defs>
<linearGradient id="paint0_linear_103_3496" x1="7.97744" y1="15.9998" x2="7.97744" y2="0.0115935" gradientUnits="userSpaceOnUse">
<stop stop-color="#FF4C0D"/>
<stop offset="1" stop-color="#FC9502"/>
</linearGradient>
<clipPath id="clip0_103_3496">
<rect width="16" height="16" fill="white"/>
</clipPath>
</defs>
</svg>
