<svg width="28" height="28" viewBox="0 0 28 28" fill="none" xmlns="http://www.w3.org/2000/svg">
<path d="M21 0H7C3.13401 0 0 3.13401 0 7V21C0 24.866 3.13401 28 7 28H21C24.866 28 28 24.866 28 21V7C28 3.13401 24.866 0 21 0Z" fill="#012DCB"/>
<path d="M17.266 16.0592L19.868 12.1689H22.5412V17.989H20.4892V13.9868L17.8108 17.989H15.2191V12.1689H17.266V16.0592Z" fill="white"/>
<path d="M18.2811 10.4399C19.0752 10.4504 20.6171 10.3179 20.7756 9.37963C20.7926 9.87176 20.7663 10.3856 20.7225 10.8741C20.6856 11.1637 20.5941 11.4043 20.4482 11.5957C20.2912 11.7871 20.0522 11.9289 19.7311 12.0213C19.4101 12.1063 18.9574 12.1449 18.3729 12.1371L17.2812 12.1226L17.3038 10.4268L18.2811 10.4399Z" fill="white"/>
<path d="M7.67447 17.9889C8.82531 17.9889 9.00946 17.1087 9.31159 16.2121H12.2603L12.6275 17.3018C12.7933 17.8112 13.0302 17.9889 13.6225 17.9889L15.2198 17.982C14.9019 17.131 14.6648 16.589 14.4398 15.9515C14.2148 15.314 12.13 9.51953 12.13 9.51953H9.44189L7.13207 15.9515C7.061 16.1529 7.00177 16.2121 6.81225 16.2121H5.83359C6.21783 17.2586 6.5937 17.9761 7.67447 17.9889ZM9.76171 14.4945L10.7898 11.6055L11.8102 14.4945H9.76171Z" fill="white"/>
</svg>
