<svg width="130" height="28" viewBox="0 0 130 28" fill="none" xmlns="http://www.w3.org/2000/svg">
<path d="M5.91848 18.12C5.91848 18.7058 6.22826 19.1392 6.84782 19.4204C7.46739 19.7016 8.28261 19.8422 9.29347 19.8422C10.6956 19.8422 11.837 19.5493 12.7174 18.9635C13.6304 18.3778 14.087 17.628 14.087 16.7142H15.0163C15.0163 18.7761 14.2989 20.4396 12.8641 21.7049C11.4293 22.9701 9.53804 23.6028 7.19021 23.6028C5.10326 23.6028 3.375 23.1693 2.00543 22.3024C0.668478 21.412 0 20.2756 0 18.8932C0 17.628 0.521739 16.6322 1.56522 15.9058C2.60869 15.1561 4.23913 14.5469 6.45652 14.0783L14.087 12.567V15.3084L8.51087 16.433C6.78261 16.7845 5.91848 17.3468 5.91848 18.12ZM20.0054 22.8647H14.087L15.7011 18.8229L14.087 18.2957V12.1804C14.087 11.4306 13.7283 10.8331 13.0109 10.3879C12.2935 9.94276 11.3478 9.72017 10.1739 9.72017C8.96739 9.72017 7.97282 10.0013 7.19021 10.5637C6.40761 11.1026 5.95108 11.8055 5.82065 12.6724L0 12.1101C0.358696 10.3059 1.45109 8.82981 3.27717 7.68172C5.10326 6.53362 7.43478 5.95957 10.2717 5.95957C13.1413 5.95957 15.4728 6.5219 17.2663 7.64657C19.0924 8.77124 20.0054 10.1536 20.0054 11.7938V22.8647Z" fill="black"/>
<path d="M43.5656 7.37143H60.9952V11.604H55.0716V23.0278H49.4892V11.604H43.5656V7.37143Z" fill="black"/>
<path d="M76.1044 7.37143H82.0417L74.5484 23.3291C73.7841 24.9637 72.7877 26.1508 71.5593 26.8905C70.3309 27.6302 68.9796 28 67.5056 28C66.3682 28 65.349 27.8585 64.4482 27.5754C63.5565 27.3014 62.6875 26.8585 61.8413 26.2467V22.3703C62.7057 22.9182 63.511 23.3109 64.2571 23.5483C65.0033 23.7857 65.8222 23.9044 66.7139 23.9044C67.5238 23.9044 68.2062 23.7309 68.7613 23.3839C69.3163 23.0369 69.7713 22.4433 70.1262 21.6032L70.1398 21.5621H67.6966L61.0633 7.37143H67.2189L71.6139 18.0556L76.1044 7.37143Z" fill="black"/>
<path d="M95.468 17.9597L99.4671 7.37143H107.848V23.0278H102.62V11.6999L97.993 23.0278H92.902L88.2886 11.7821V23.0278H83.0611V7.37143H91.4415L95.468 17.9597Z" fill="black"/>
<path d="M115.86 17.8364L122.834 7.37143H130V23.0278H124.499V12.2615L117.32 23.0278H110.373V7.37143H115.86V17.8364Z" fill="black"/>
<path d="M30.7691 2.85208C32.8977 2.88058 37.0308 2.52396 37.4555 0C37.5012 1.32385 37.4305 2.70602 37.3133 4.02029C37.2143 4.79939 36.9691 5.44647 36.5779 5.96151C36.1572 6.47616 35.5165 6.8578 34.6558 7.10641C33.7953 7.33502 32.5818 7.43884 31.0151 7.41786L28.0887 7.37868L28.1493 2.817L30.7691 2.85208Z" fill="black"/>
<path d="M28.0457 17.8362L35.0203 7.37128H42.1859V23.0276H36.6854V12.2613L29.5061 23.0276H22.5588V7.37128H28.0457V17.8362Z" fill="black"/>
</svg>
